<?xml version="1.0" encoding="UTF-8" standalone="no"?>
<svg
   xmlns:dc="http://purl.org/dc/elements/1.1/"
   xmlns:cc="http://creativecommons.org/ns#"
   xmlns:rdf="http://www.w3.org/1999/02/22-rdf-syntax-ns#"
   xmlns:svg="http://www.w3.org/2000/svg"
   xmlns="http://www.w3.org/2000/svg"
   xmlns:sodipodi="http://sodipodi.sourceforge.net/DTD/sodipodi-0.dtd"
   xmlns:inkscape="http://www.inkscape.org/namespaces/inkscape"
   version="1.1"
   id="svg2"
   xml:space="preserve"
   width="521.41333"
   height="526.82666"
   viewBox="0 0 521.41333 526.82666"
   sodipodi:docname="PS-Logo-Ikon.eps"><metadata
     id="metadata8"><rdf:RDF><cc:Work
         rdf:about=""><dc:format>image/svg+xml</dc:format><dc:type
           rdf:resource="http://purl.org/dc/dcmitype/StillImage" /></cc:Work></rdf:RDF></metadata><defs
     id="defs6" /><sodipodi:namedview
     pagecolor="#ffffff"
     bordercolor="#666666"
     borderopacity="1"
     objecttolerance="10"
     gridtolerance="10"
     guidetolerance="10"
     inkscape:pageopacity="0"
     inkscape:pageshadow="2"
     inkscape:window-width="640"
     inkscape:window-height="480"
     id="namedview4" /><g
     id="g10"
     inkscape:groupmode="layer"
     inkscape:label="ink_ext_XXXXXX"
     transform="matrix(1.3333333,0,0,-1.3333333,0,526.82667)"><g
       id="g12"
       transform="scale(0.1)"><path
         d="m 3214.57,2159.37 c 0,0 -10.21,-285.12 -242.79,-389.31 h 402.96 c 0,0 101.39,16.28 112.92,-118.33 12.05,-140.52 6.39,-942.89 6.39,-942.89 0,0 32.84,-344.848 -421.48,-295.578 H 724.297 c 0,0 -279.164,-19.16 -309.274,273.687 l -2.738,385.901 c 0,0 14.043,96.27 -65.117,99.98 -79.156,3.71 -260.9688,2.47 -260.9688,2.47 0,0 -81.62889,11.13 -84.10545,-82.87 -2.472656,-94 1.23828,-484.84 1.23828,-484.84 0,0 14.03517,-542.8517 576.98397,-603.78141 L 3255.97,0.242188 c 0,0 564.92,-29.472688 648.42,574.737812 l 4.92,1115.11 c 0,0 -16.42,424.61 -406.27,468.62 l -288.47,0.66"
         style="fill:#040606;fill-opacity:1;fill-rule:nonzero;stroke:none"
         id="path14" /><path
         d="m 3829.57,2766.85 c -98.23,-1.89 -248.53,-3.77 -258.89,-3.9 -0.44,-0.01 -0.76,0.02 -1.2,0.11 -7.37,1.42 -77.16,17.52 -78.13,119.08 -1.17,129.14 -0.03,378.42 0,384.15 0,0.14 0,0.05 -0.01,0.19 -0.35,5.73 -18.32,272.72 -293.9,268.98 -276.89,-3.87 -2466.229,-14.8 -2494.452,-14.94 -0.222,-0.01 -0.343,0 -0.566,0.02 -10.367,1.03 -293.793,25.88 -289.84,-335 4.086,-361.5 4.16,-663.71 4.16,-673.86 0,-0.22 -0.004,-0.29 -0.023,-0.5 -1.043,-10.11 -31.293,-330.71 310.433,-330.71 v 0 c 32.164,0 58.235,-26.07 58.235,-58.23 v -293.91 c 0,-32.16 -26.071,-58.23 -58.235,-58.23 h -85.793 c 0,0 -588.0973,1.82 -641.32775,577.46 C 0.0078125,2347.78 0,2348 0,2348.22 v 1061.41 c 0,0.37 0.0273438,0.69 0.0859375,1.05 C 3.07813,3428.09 84.5352,3874.59 578.266,3940.05 c 0.289,0.04 0.586,0.07 0.879,0.07 l 2700.095,10.52 c 0.14,0 0.19,0 0.35,0.01 7.09,0.55 316.81,22.62 524.06,-288.17 0.12,-0.19 0.21,-0.3 0.34,-0.47 3.81,-4.47 74.3,-89.43 100.52,-277.93 0.04,-0.29 0.07,-0.59 0.07,-0.89 l 3.76,-496.73 c 0,-0.34 0.03,-0.67 0.09,-1 1.43,-7.92 19.34,-116.73 -78.86,-118.61"
         style="fill:#040606;fill-opacity:1;fill-rule:nonzero;stroke:none"
         id="path16" /><path
         d="m 1123.59,1633.22 c 0,0 83.4,6.19 83.4,-78.32 0,-84.5 0,-809.88 0,-809.88 0,0 15.44,-95.211 -102.62,-87.59 l -239.64,-0.282 c 0,0 -78.226,-13.906 -78.226,77.532 0,91.449 0,801.14 0,801.14 0,0 -17.274,96.76 70.273,99.4 99.434,3.01 266.813,-2 266.813,-2"
         style="fill:#d41f2b;fill-opacity:1;fill-rule:nonzero;stroke:none"
         id="path18" /><path
         d="m 3117.24,2164.09 c 0,0 -32.63,-350.83 -359.42,-393.99 H 915.375 c -28.715,0 -51.996,23.27 -51.996,51.99 v 306.67 c 0,28.65 23.148,51.89 51.797,51.99 485.244,1.68 1756.724,11.94 1756.724,11.94 0,0 28.6,-4.16 28.6,53.16 0,57.2 -4.04,424.8 -4.04,424.8 0,0 28.61,73.58 -110.35,65.38 -138.83,-8.18 -1385.02,-8.18 -1385.02,-8.18 l 4.16,-375.79 c 0,0 3.38,-69.16 -65.39,-69.55 -89.95,-0.39 -285.969,4.16 -285.969,4.16 0,0 -57.2,-4.16 -61.36,65.39 -4.027,69.4 -4.027,706.74 -4.027,706.74 0,0 0,85.79 81.637,89.95 81.757,4.03 1801.759,8.19 1801.759,8.19 0,0 339.13,24.44 437.28,-335.11 l 8.06,-657.74"
         style="fill:#d41f2b;fill-opacity:1;fill-rule:nonzero;stroke:none"
         id="path20" /></g></g></svg>
