<?xml version="1.0" encoding="UTF-8" standalone="no"?>
<svg
   xmlns:dc="http://purl.org/dc/elements/1.1/"
   xmlns:cc="http://creativecommons.org/ns#"
   xmlns:rdf="http://www.w3.org/1999/02/22-rdf-syntax-ns#"
   xmlns:svg="http://www.w3.org/2000/svg"
   xmlns="http://www.w3.org/2000/svg"
   xmlns:sodipodi="http://sodipodi.sourceforge.net/DTD/sodipodi-0.dtd"
   xmlns:inkscape="http://www.inkscape.org/namespaces/inkscape"
   version="1.1"
   id="svg2"
   xml:space="preserve"
   width="3285.4133"
   height="2443.6133"
   viewBox="0 0 3285.4133 2443.6133"
   sodipodi:docname="PS-Logo-Moodboard.eps"><metadata
     id="metadata8"><rdf:RDF><cc:Work
         rdf:about=""><dc:format>image/svg+xml</dc:format><dc:type
           rdf:resource="http://purl.org/dc/dcmitype/StillImage" /></cc:Work></rdf:RDF></metadata><defs
     id="defs6" /><sodipodi:namedview
     pagecolor="#ffffff"
     bordercolor="#666666"
     borderopacity="1"
     objecttolerance="10"
     gridtolerance="10"
     guidetolerance="10"
     inkscape:pageopacity="0"
     inkscape:pageshadow="2"
     inkscape:window-width="640"
     inkscape:window-height="480"
     id="namedview4" /><g
     id="g10"
     inkscape:groupmode="layer"
     inkscape:label="ink_ext_XXXXXX"
     transform="matrix(1.3333333,0,0,-1.3333333,0,2443.6133)"><g
       id="g12"
       transform="scale(0.1)"><path
         d="M 24615,6315 H 15 v 5400 h 24600 z"
         style="fill:none;stroke:#040606;stroke-width:10;stroke-linecap:butt;stroke-linejoin:miter;stroke-miterlimit:10;stroke-dasharray:none;stroke-opacity:1"
         id="path14" /><path
         d="m 24640.7,12312.1 h -5992.5 v 6003 h 5992.5 v -6003"
         style="fill:#040606;fill-opacity:1;fill-rule:nonzero;stroke:none"
         id="path16" /><path
         d="m 18437.3,12302.4 h -5999.5 v 6012 h 5999.5 v -6012"
         style="fill:#040606;fill-opacity:1;fill-rule:nonzero;stroke:none"
         id="path18" /><path
         d="M 12215,12315 H 6215 v 6000 h 6000 z"
         style="fill:none;stroke:#040606;stroke-width:10;stroke-linecap:butt;stroke-linejoin:miter;stroke-miterlimit:10;stroke-dasharray:none;stroke-opacity:1"
         id="path20" /><path
         d="M 6024.28,12315 H 24.2734 v 6000 H 6024.28 Z"
         style="fill:none;stroke:#040606;stroke-width:10;stroke-linecap:butt;stroke-linejoin:miter;stroke-miterlimit:10;stroke-dasharray:none;stroke-opacity:1"
         id="path22" /><g
         id="g24"
         transform="scale(10)"><text
           transform="matrix(1,0,0,-1,95.5469,1371.36)"
           style="font-variant:normal;font-weight:bold;font-size:41.1725px;font-family:Roboto;-inkscape-font-specification:Roboto-Bold;writing-mode:lr-tb;fill:#040606;fill-opacity:1;fill-rule:nonzero;stroke:none"
           id="text28"><tspan
             x="0 28.100597 51.738293 67.675797 91.252907 103.77341 128.53659 153.2998 165.07619 192.7144 217.4776 229.99808 254.76178 270.65927 283.17877 307.94247 332.70615 344.48254 372.36148"
             y="0"
             sodipodi:role="line"
             id="tspan26">Parking Solution AS</tspan></text></g><path
         d="m 3797.88,15857.3 c 0,0 -6.83,-190.7 -162.42,-260.4 h 269.57 c 0,0 67.82,10.8 75.54,-79.2 8.05,-94 4.27,-630.8 4.27,-630.8 0,0 21.98,-230.7 -281.95,-197.7 h -1570.9 c 0,0 -186.75,-12.8 -206.89,183.1 l -1.83,258.1 c 0,0 9.39,64.4 -43.56,66.9 -52.95,2.5 -174.58,1.7 -174.58,1.7 0,0 -54.6,7.4 -56.26,-55.5 -1.65,-62.8 0.83,-324.3 0.83,-324.3 0,0 9.39,-363.1 385.97,-403.9 l 1789.91,-2.4 c 0,0 377.9,-19.7 433.77,384.5 l 3.29,746 c 0,0 -10.99,284 -271.79,313.4 l -192.97,0.5"
         style="fill:#040606;fill-opacity:1;fill-rule:nonzero;stroke:none"
         id="path30" /><path
         d="m 4209.29,16263.6 c -65.72,-1.2 -166.25,-2.5 -173.19,-2.5 -0.29,-0.1 -0.5,0 -0.8,0 -4.93,1 -51.61,11.7 -52.27,79.7 -0.77,86.4 -0.02,253.1 0,257 0,0.1 0,0 0,0.1 -0.24,3.8 -12.26,182.4 -196.6,179.9 -185.24,-2.6 -1649.81,-9.9 -1668.69,-10 -0.15,0 -0.23,0 -0.38,0.1 -6.94,0.6 -196.54,17.3 -193.89,-224.2 2.74,-241.8 2.78,-443.9 2.78,-450.7 0,-0.2 0,-0.2 -0.01,-0.4 -0.7,-6.7 -20.94,-221.2 207.66,-221.2 v 0 c 21.52,0 38.96,-17.5 38.96,-39 v -196.6 c 0,-21.5 -17.44,-38.9 -38.95,-38.9 h -57.4 c 0,0 -393.41,1.2 -429.02,386.3 -0.01,0.1 -0.02,0.3 -0.02,0.4 v 710.1 c 0,0.2 0.02,0.4 0.06,0.7 2,11.6 56.49,310.3 386.77,354.1 0.2,0 0.4,0 0.59,0 l 1806.25,7.1 c 0.1,0 0.13,0 0.24,0 4.74,0.3 211.92,15.1 350.57,-192.8 0.08,-0.1 0.14,-0.2 0.23,-0.3 2.55,-3 49.7,-59.8 67.24,-185.9 0.03,-0.2 0.04,-0.4 0.04,-0.6 l 2.52,-332.3 c 0,-0.3 0.02,-0.5 0.06,-0.7 0.96,-5.3 12.94,-78.1 -52.75,-79.4"
         style="fill:#040606;fill-opacity:1;fill-rule:nonzero;stroke:none"
         id="path32" /><path
         d="m 2399.1,15505.3 c 0,0 55.79,4.1 55.79,-52.4 0,-56.5 0,-541.8 0,-541.8 0,0 10.33,-63.7 -68.64,-58.6 l -160.31,-0.1 c 0,0 -52.33,-9.3 -52.33,51.8 0,61.2 0,535.9 0,535.9 0,0 -11.55,64.8 47.01,66.5 66.51,2.1 178.48,-1.3 178.48,-1.3"
         style="fill:#d41f2b;fill-opacity:1;fill-rule:nonzero;stroke:none"
         id="path34" /><path
         d="m 3732.77,15860.4 c 0,0 -21.82,-234.7 -240.44,-263.5 H 2259.81 c -19.2,0 -34.78,15.5 -34.78,34.7 v 205.2 c 0,19.2 15.49,34.7 34.65,34.8 324.61,1.1 1175.17,8 1175.17,8 0,0 19.13,-2.8 19.13,35.5 0,38.3 -2.69,284.2 -2.69,284.2 0,0 19.13,49.2 -73.82,43.8 -92.87,-5.5 -926.52,-5.5 -926.52,-5.5 l 2.78,-251.4 c 0,0 2.26,-46.3 -43.74,-46.6 -60.18,-0.2 -191.3,2.8 -191.3,2.8 0,0 -38.27,-2.8 -41.05,43.8 -2.69,46.4 -2.69,472.8 -2.69,472.8 0,0 0,57.4 54.61,60.1 54.69,2.7 1205.29,5.5 1205.29,5.5 0,0 226.88,16.4 292.53,-224.2 l 5.39,-440"
         style="fill:#d41f2b;fill-opacity:1;fill-rule:nonzero;stroke:none"
         id="path36" /><path
         d="m 5201.26,9183.57 c 0,0 -6.94,-193.9 -165.13,-264.76 h 274.06 c 0,0 68.96,11.07 76.8,-80.48 8.19,-95.58 4.35,-641.33 4.35,-641.33 0,0 22.33,-234.5 -286.66,-201 H 3507.6 c 0,0 -189.87,-13 -210.34,186.2 l -1.86,262.42 c 0,0 9.55,65.48 -44.29,68 -53.83,2.52 -177.49,1.68 -177.49,1.68 0,0 -55.51,7.56 -57.19,-56.36 -1.69,-63.93 0.84,-329.74 0.84,-329.74 0,0 9.54,-369.2 392.41,-410.6 l 1819.73,-2.5 c 0,0 384.21,-20 441.01,390.9 l 3.34,758.41 c 0,0 -11.17,288.78 -276.31,318.71 l -196.19,0.45"
         style="fill:#040606;fill-opacity:1;fill-rule:nonzero;stroke:none"
         id="path38" /><path
         d="m 5619.53,9596.73 c -66.82,-1.29 -169.03,-2.57 -176.07,-2.66 -0.31,0 -0.53,0.02 -0.82,0.08 -5.02,0.97 -52.47,11.91 -53.15,80.99 -0.78,87.83 -0.02,257.37 0,261.26 0,0.09 0,0.03 0,0.13 -0.24,3.9 -12.46,185.47 -199.88,182.97 -188.32,-2.7 -1677.31,-10.1 -1696.5,-10.2 -0.15,0 -0.24,0 -0.39,0 -7.05,0.7 -199.81,17.6 -197.12,-227.83 2.78,-245.85 2.83,-451.38 2.83,-458.29 0,-0.14 0,-0.19 -0.02,-0.34 -0.7,-6.87 -21.28,-224.92 211.13,-224.92 v 0 c 21.88,0.01 39.61,-17.73 39.61,-39.6 v -199.89 c 0,-21.87 -17.73,-39.6 -39.61,-39.6 h -58.35 c 0,0 -399.97,1.24 -436.17,392.73 -0.01,0.16 -0.02,0.3 -0.02,0.45 v 721.89 c 0,0.2 0.02,0.5 0.06,0.7 2.04,11.8 57.43,315.5 393.22,360 0.2,0.1 0.4,0.1 0.61,0.1 l 1836.35,7.1 c 0.1,0 0.13,0 0.24,0 4.82,0.4 215.46,15.4 356.41,-195.9 0.09,-0.2 0.15,-0.3 0.24,-0.4 2.59,-3 50.53,-60.8 68.37,-189 0.02,-0.2 0.04,-0.4 0.04,-0.6 l 2.56,-337.83 c 0,-0.23 0.02,-0.45 0.05,-0.68 0.98,-5.38 13.17,-79.39 -53.62,-80.66"
         style="fill:#040606;fill-opacity:1;fill-rule:nonzero;stroke:none"
         id="path40" /><path
         d="m 3779.16,8825.73 c 0,0 56.72,4.21 56.72,-53.26 0,-57.47 0,-550.77 0,-550.77 0,0 10.51,-64.8 -69.79,-59.6 l -162.97,-0.2 c 0,0 -53.21,-9.5 -53.21,52.7 0,62.2 0,544.9 0,544.9 0,0 -11.75,65.8 47.8,67.6 67.62,2.04 181.45,-1.37 181.45,-1.37"
         style="fill:#d41f2b;fill-opacity:1;fill-rule:nonzero;stroke:none"
         id="path42" /><path
         d="m 5135.06,9186.79 c 0,0 -22.19,-238.62 -244.44,-267.96 H 3637.56 c -19.53,0 -35.37,15.83 -35.37,35.36 v 208.56 c 0,19.48 15.74,35.3 35.23,35.36 330.02,1.15 1194.77,8.12 1194.77,8.12 0,0 19.44,-2.82 19.44,36.16 0,38.9 -2.73,288.91 -2.73,288.91 0,0 19.44,50.04 -75.06,44.47 -94.43,-5.57 -941.96,-5.57 -941.96,-5.57 l 2.82,-255.58 c 0,0 2.3,-47.03 -44.47,-47.3 -61.18,-0.26 -194.49,2.83 -194.49,2.83 0,0 -38.9,-2.83 -41.73,44.47 -2.74,47.2 -2.74,480.66 -2.74,480.66 0,0 0,58.35 55.52,61.18 55.6,2.74 1225.4,5.57 1225.4,5.57 0,0 230.64,16.62 297.39,-227.91 l 5.48,-447.33"
         style="fill:#d41f2b;fill-opacity:1;fill-rule:nonzero;stroke:none"
         id="path44" /><g
         id="g46"
         transform="scale(10)"><text
           transform="matrix(1,0,0,-1,651.918,836.398)"
           style="font-variant:normal;font-weight:bold;font-size:160.156px;font-family:Roboto;-inkscape-font-specification:Roboto-Bold;writing-mode:lr-tb;fill:#040606;fill-opacity:1;fill-rule:nonzero;stroke:none"
           id="text50"><tspan
             x="0 109.30799 201.25424 263.25034 354.96222 403.66431 499.99051 596.31665 642.12433 749.63336 845.95947 894.66077 990.98682 1052.8265 1101.5276 1197.8541 1294.1803 1339.9888 1448.4357"
             y="0"
             sodipodi:role="line"
             id="tspan48">Parking Solution AS</tspan></text><text
           transform="matrix(1,0,0,-1,725.5469,1371.36)"
           style="font-variant:normal;font-weight:bold;font-size:41.1725px;font-family:Roboto;-inkscape-font-specification:Roboto-Bold;writing-mode:lr-tb;fill:#040606;fill-opacity:1;fill-rule:nonzero;stroke:none"
           id="text54"><tspan
             x="0 28.100565 51.738274 67.675797 91.252899 103.7735 128.53619 153.29987 165.07623 192.71506 217.47775 229.99825 254.76193 270.65936 283.17886 307.94254 332.70624 344.4827 372.3616"
             y="0"
             sodipodi:role="line"
             id="tspan52">Parking Solution AS</tspan></text></g><path
         d="m 10097.9,15857.3 c 0,0 -6.8,-190.7 -162.44,-260.4 H 10205 c 0,0 67.9,10.8 75.6,-79.2 8,-94 4.2,-630.8 4.2,-630.8 0,0 22,-230.7 -281.9,-197.7 H 8431.99 c 0,0 -186.75,-12.8 -206.89,183.1 l -1.83,258.1 c 0,0 9.4,64.4 -43.56,66.9 -52.95,2.5 -174.57,1.7 -174.57,1.7 0,0 -54.61,7.4 -56.27,-55.5 -1.65,-62.8 0.83,-324.3 0.83,-324.3 0,0 9.39,-363.1 385.97,-403.9 l 1789.93,-2.4 c 0,0 377.9,-19.7 433.7,384.5 l 3.3,746 c 0,0 -10.9,284 -271.8,313.4 l -192.9,0.5"
         style="fill:#040606;fill-opacity:1;fill-rule:nonzero;stroke:none"
         id="path56" /><path
         d="m 10509.3,16263.6 c -65.7,-1.2 -166.3,-2.5 -173.2,-2.5 -0.3,-0.1 -0.5,0 -0.8,0 -4.9,1 -51.6,11.7 -52.3,79.7 -0.7,86.4 0,253.1 0,257 0,0.1 0,0 0,0.1 -0.2,3.8 -12.2,182.4 -196.6,179.9 -185.21,-2.6 -1649.78,-9.9 -1668.66,-10 -0.15,0 -0.23,0 -0.38,0.1 -6.94,0.6 -196.54,17.3 -193.89,-224.2 2.73,-241.8 2.78,-443.9 2.78,-450.7 0,-0.2 0,-0.2 -0.02,-0.4 -0.69,-6.7 -20.93,-221.2 207.68,-221.2 v 0 c 21.51,0 38.95,-17.5 38.95,-39 v -196.6 c 0,-21.5 -17.44,-38.9 -38.95,-38.9 h -57.4 c 0,0 -393.41,1.2 -429.02,386.3 -0.01,0.1 -0.02,0.3 -0.02,0.4 v 710.1 c 0,0.2 0.02,0.4 0.06,0.7 2,11.6 56.49,310.3 386.78,354.1 0.19,0 0.39,0 0.58,0 l 1806.21,7.1 c 0.1,0 0.2,0 0.3,0 4.7,0.3 211.9,15.1 350.6,-192.8 0,-0.1 0.1,-0.2 0.2,-0.3 2.5,-3 49.7,-59.8 67.2,-185.9 0.1,-0.2 0.1,-0.4 0.1,-0.6 l 2.5,-332.3 c 0,-0.3 0,-0.5 0,-0.7 1,-5.3 13,-78.1 -52.7,-79.4"
         style="fill:#040606;fill-opacity:1;fill-rule:nonzero;stroke:none"
         id="path58" /><path
         d="m 8699.1,15505.3 c 0,0 55.79,4.1 55.79,-52.4 0,-56.5 0,-541.8 0,-541.8 0,0 10.32,-63.7 -68.64,-58.6 l -160.31,-0.1 c 0,0 -52.34,-9.3 -52.34,51.8 0,61.2 0,535.9 0,535.9 0,0 -11.55,64.8 47.02,66.5 66.52,2.1 178.48,-1.3 178.48,-1.3"
         style="fill:#040606;fill-opacity:1;fill-rule:nonzero;stroke:none"
         id="path60" /><path
         d="m 10032.8,15860.4 c 0,0 -21.9,-234.7 -240.47,-263.5 H 8559.81 c -19.2,0 -34.78,15.5 -34.78,34.7 v 205.2 c 0,19.2 15.49,34.7 34.65,34.8 324.61,1.1 1175.17,8 1175.17,8 0,0 19.13,-2.8 19.13,35.5 0,38.3 -2.69,284.2 -2.69,284.2 0,0 19.13,49.2 -73.82,43.8 -92.87,-5.5 -926.52,-5.5 -926.52,-5.5 l 2.78,-251.4 c 0,0 2.26,-46.3 -43.74,-46.6 -60.18,-0.2 -191.31,2.8 -191.31,2.8 0,0 -38.25,-2.8 -41.03,43.8 -2.7,46.4 -2.7,472.7 -2.7,472.7 0,0 0,57.5 54.6,60.2 54.7,2.7 1205.3,5.5 1205.3,5.5 0,0 226.88,16.4 292.55,-224.2 l 5.4,-440"
         style="fill:#040606;fill-opacity:1;fill-rule:nonzero;stroke:none"
         id="path62" /><g
         id="g64"
         transform="scale(10)"><text
           transform="matrix(1,0,0,-1,1365.55,1371.36)"
           style="font-variant:normal;font-weight:bold;font-size:41.1725px;font-family:Roboto;-inkscape-font-specification:Roboto-Bold;writing-mode:lr-tb;fill:#ffffff;fill-opacity:1;fill-rule:nonzero;stroke:none"
           id="text68"><tspan
             x="0 28.100565 51.738224 67.675751 91.252899 103.7734 128.53708 153.29977 165.07614 192.71495 217.47765 229.99815 254.76183 270.65924 283.17868 307.94254 332.70621 344.48257 372.36151"
             y="0"
             sodipodi:role="line"
             id="tspan66">Parking Solution AS</tspan></text></g><path
         d="m 16497.9,15857.3 c 0,0 -6.8,-190.7 -162.4,-260.4 h 269.5 c 0,0 67.9,10.8 75.6,-79.2 8,-94 4.2,-630.8 4.2,-630.8 0,0 22,-230.7 -281.9,-197.7 H 14832 c 0,0 -186.8,-12.8 -206.9,183.1 l -1.8,258.1 c 0,0 9.4,64.4 -43.6,66.9 -52.9,2.5 -174.6,1.7 -174.6,1.7 0,0 -54.6,7.4 -56.2,-55.5 -1.7,-62.8 0.8,-324.3 0.8,-324.3 0,0 9.4,-363.1 386,-403.9 l 1789.9,-2.4 c 0,0 377.9,-19.7 433.7,384.5 l 3.3,746 c 0,0 -10.9,284 -271.8,313.4 l -192.9,0.5"
         style="fill:#ffffff;fill-opacity:1;fill-rule:nonzero;stroke:none"
         id="path70" /><path
         d="m 16909.3,16263.6 c -65.7,-1.2 -166.3,-2.5 -173.2,-2.5 -0.3,-0.1 -0.5,0 -0.8,0 -4.9,1 -51.6,11.7 -52.3,79.7 -0.7,86.4 0,253.1 0,257 0,0.1 0,0 0,0.1 -0.2,3.8 -12.2,182.4 -196.6,179.9 -185.2,-2.6 -1649.8,-9.9 -1668.7,-10 -0.1,0 -0.2,0 -0.3,0.1 -7,0.6 -196.6,17.3 -193.9,-224.2 2.7,-241.8 2.8,-443.9 2.8,-450.7 0,-0.2 0,-0.2 -0.1,-0.4 -0.7,-6.7 -20.9,-221.2 207.7,-221.2 v 0 c 21.5,0 39,-17.5 39,-39 v -196.6 c 0,-21.5 -17.5,-38.9 -39,-38.9 h -57.4 c 0,0 -393.4,1.2 -429,386.3 0,0.1 0,0.3 0,0.4 v 710.1 c 0,0.2 0,0.4 0,0.7 2,11.6 56.5,310.3 386.8,354.1 0.2,0 0.4,0 0.6,0 l 1806.2,7.1 c 0.1,0 0.2,0 0.3,0 4.7,0.3 211.9,15.1 350.6,-192.8 0,-0.1 0.1,-0.2 0.2,-0.3 2.5,-3 49.7,-59.8 67.2,-185.9 0.1,-0.2 0.1,-0.4 0.1,-0.6 l 2.5,-332.3 c 0,-0.3 0,-0.5 0,-0.7 1,-5.3 13,-78.1 -52.7,-79.4"
         style="fill:#ffffff;fill-opacity:1;fill-rule:nonzero;stroke:none"
         id="path72" /><path
         d="m 15099.1,15505.3 c 0,0 55.8,4.1 55.8,-52.4 0,-56.5 0,-541.8 0,-541.8 0,0 10.3,-63.7 -68.6,-58.6 l -160.4,-0.1 c 0,0 -52.3,-9.3 -52.3,51.8 0,61.2 0,535.9 0,535.9 0,0 -11.5,64.8 47,66.5 66.5,2.1 178.5,-1.3 178.5,-1.3"
         style="fill:#d41f2b;fill-opacity:1;fill-rule:nonzero;stroke:none"
         id="path74" /><path
         d="m 16432.8,15860.4 c 0,0 -21.9,-234.7 -240.5,-263.5 h -1232.5 c -19.2,0 -34.8,15.5 -34.8,34.7 v 205.2 c 0,19.2 15.5,34.7 34.7,34.8 324.6,1.1 1175.2,8 1175.2,8 0,0 19.1,-2.8 19.1,35.5 0,38.3 -2.7,284.2 -2.7,284.2 0,0 19.1,49.2 -73.8,43.8 -92.9,-5.5 -926.6,-5.5 -926.6,-5.5 l 2.8,-251.4 c 0,0 2.3,-46.3 -43.7,-46.6 -60.2,-0.2 -191.3,2.8 -191.3,2.8 0,0 -38.3,-2.8 -41.1,43.8 -2.6,46.4 -2.6,472.8 -2.6,472.8 0,0 0,57.4 54.6,60.1 54.6,2.7 1205.3,5.5 1205.3,5.5 0,0 226.8,16.4 292.5,-224.2 l 5.4,-440"
         style="fill:#d41f2b;fill-opacity:1;fill-rule:nonzero;stroke:none"
         id="path76" /><g
         id="g78"
         transform="scale(10)"><text
           transform="matrix(1,0,0,-1,1965.55,1371.36)"
           style="font-variant:normal;font-weight:bold;font-size:41.1725px;font-family:Roboto;-inkscape-font-specification:Roboto-Bold;writing-mode:lr-tb;fill:#ffffff;fill-opacity:1;fill-rule:nonzero;stroke:none"
           id="text82"><tspan
             x="0 28.100565 51.738323 67.67585 91.252899 103.7735 128.53717 153.29987 165.07623 192.71495 217.47765 229.99825 254.76193 270.65964 283.17908 307.94293 332.7066 344.48297 372.36191"
             y="0"
             sodipodi:role="line"
             id="tspan80">Parking Solution AS</tspan></text></g><path
         d="m 22497.9,15857.3 c 0,0 -6.8,-190.7 -162.4,-260.4 h 269.5 c 0,0 67.9,10.8 75.6,-79.2 8,-94 4.2,-630.8 4.2,-630.8 0,0 22,-230.7 -281.9,-197.7 H 20832 c 0,0 -186.8,-12.8 -206.9,183.1 l -1.8,258.1 c 0,0 9.4,64.4 -43.6,66.9 -52.9,2.5 -174.6,1.7 -174.6,1.7 0,0 -54.6,7.4 -56.2,-55.5 -1.7,-62.8 0.8,-324.3 0.8,-324.3 0,0 9.4,-363.1 386,-403.9 l 1789.9,-2.4 c 0,0 377.9,-19.7 433.7,384.5 l 3.3,746 c 0,0 -10.9,284 -271.8,313.4 l -192.9,0.5"
         style="fill:#ffffff;fill-opacity:1;fill-rule:nonzero;stroke:none"
         id="path84" /><path
         d="m 22909.3,16263.6 c -65.7,-1.2 -166.3,-2.5 -173.2,-2.5 -0.3,-0.1 -0.5,0 -0.8,0 -4.9,1 -51.6,11.7 -52.3,79.7 -0.7,86.4 0,253.1 0,257 0,0.1 0,0 0,0.1 -0.2,3.8 -12.2,182.4 -196.6,179.9 -185.2,-2.6 -1649.8,-9.9 -1668.7,-10 -0.1,0 -0.2,0 -0.3,0.1 -7,0.6 -196.6,17.3 -193.9,-224.2 2.7,-241.8 2.8,-443.9 2.8,-450.7 0,-0.2 0,-0.2 -0.1,-0.4 -0.7,-6.7 -20.9,-221.2 207.7,-221.2 v 0 c 21.5,0 39,-17.5 39,-39 v -196.6 c 0,-21.5 -17.5,-38.9 -39,-38.9 h -57.4 c 0,0 -393.4,1.2 -429,386.3 0,0.1 0,0.3 0,0.4 v 710.1 c 0,0.2 0,0.4 0,0.7 2,11.6 56.5,310.3 386.8,354.1 0.2,0 0.4,0 0.6,0 l 1806.2,7.1 c 0.1,0 0.2,0 0.3,0 4.7,0.3 211.9,15.1 350.6,-192.8 0,-0.1 0.1,-0.2 0.2,-0.3 2.5,-3 49.7,-59.8 67.2,-185.9 0.1,-0.2 0.1,-0.4 0.1,-0.6 l 2.5,-332.3 c 0,-0.3 0,-0.5 0,-0.7 1,-5.3 13,-78.1 -52.7,-79.4"
         style="fill:#ffffff;fill-opacity:1;fill-rule:nonzero;stroke:none"
         id="path86" /><path
         d="m 21099.1,15505.3 c 0,0 55.8,4.1 55.8,-52.4 0,-56.5 0,-541.8 0,-541.8 0,0 10.3,-63.7 -68.6,-58.6 l -160.4,-0.1 c 0,0 -52.3,-9.3 -52.3,51.8 0,61.2 0,535.9 0,535.9 0,0 -11.5,64.8 47,66.5 66.5,2.1 178.5,-1.3 178.5,-1.3"
         style="fill:#ffffff;fill-opacity:1;fill-rule:nonzero;stroke:none"
         id="path88" /><path
         d="m 22432.8,15860.4 c 0,0 -21.9,-234.7 -240.5,-263.5 h -1232.5 c -19.2,0 -34.8,15.5 -34.8,34.7 v 205.2 c 0,19.2 15.5,34.7 34.7,34.8 324.6,1.1 1175.2,8 1175.2,8 0,0 19.1,-2.8 19.1,35.5 0,38.3 -2.7,284.2 -2.7,284.2 0,0 19.1,49.2 -73.8,43.8 -92.9,-5.5 -926.6,-5.5 -926.6,-5.5 l 2.8,-251.4 c 0,0 2.3,-46.3 -43.7,-46.6 -60.2,-0.2 -191.3,2.8 -191.3,2.8 0,0 -38.3,-2.8 -41.1,43.8 -2.6,46.4 -2.6,472.8 -2.6,472.8 0,0 0,57.4 54.6,60.1 54.6,2.7 1205.3,5.5 1205.3,5.5 0,0 226.8,16.4 292.5,-224.2 l 5.4,-440"
         style="fill:#ffffff;fill-opacity:1;fill-rule:nonzero;stroke:none"
         id="path90" /><g
         id="g92"
         transform="scale(10)"><text
           transform="matrix(1,0,0,-1,523.244,1755.77)"
           style="font-variant:normal;font-weight:normal;font-size:49.9954px;font-family:MyriadPro;-inkscape-font-specification:MyriadPro-Regular;writing-mode:lr-tb;fill:#040606;fill-opacity:1;fill-rule:nonzero;stroke:none"
           id="text96"><tspan
             x="0 25.646469 628.25604 653.90247"
             y="0"
             sodipodi:role="line"
             id="tspan94">1.2.</tspan></text></g><g
         id="g98"
         transform="scale(10)"><text
           transform="matrix(1,0,0,-1,1771.5,1755.77)"
           style="font-variant:normal;font-weight:normal;font-size:49.9954px;font-family:MyriadPro;-inkscape-font-specification:MyriadPro-Regular;writing-mode:lr-tb;fill:#ffffff;fill-opacity:1;fill-rule:nonzero;stroke:none"
           id="text104"><tspan
             x="0 25.646469"
             y="0"
             sodipodi:role="line"
             id="tspan100">3.</tspan><tspan
             x="610 635.64648"
             y="-15.7297"
             sodipodi:role="line"
             id="tspan102">4.</tspan></text></g><g
         id="g106"
         transform="scale(10)"><text
           transform="matrix(1,0,0,-1,2381.5,1101.5)"
           style="font-variant:normal;font-weight:normal;font-size:49.9954px;font-family:MyriadPro;-inkscape-font-specification:MyriadPro-Regular;writing-mode:lr-tb;fill:#040606;fill-opacity:1;fill-rule:nonzero;stroke:none"
           id="text110"><tspan
             x="0 25.646469"
             y="0"
             sodipodi:role="line"
             id="tspan108">5.</tspan></text></g><path
         d="M 24515,15 H 15 v 5700 h 24500 z"
         style="fill:none;stroke:#3f4143;stroke-width:30;stroke-linecap:butt;stroke-linejoin:miter;stroke-miterlimit:10;stroke-dasharray:none;stroke-opacity:1"
         id="path112" /><path
         d="M 10415,1115 H 7115 v 3500 h 3300 V 1115"
         style="fill:#d41f2b;fill-opacity:1;fill-rule:nonzero;stroke:none"
         id="path114" /><path
         d="m 18615,1115 h -3300 v 3500 h 3300 V 1115"
         style="fill:#040606;fill-opacity:1;fill-rule:nonzero;stroke:none"
         id="path116" /><g
         id="g118"
         transform="scale(10)"><text
           transform="matrix(1,0,0,-1,111.5,462.54)"
           style="font-variant:normal;font-weight:300;font-size:38px;font-family:Roboto;-inkscape-font-specification:Roboto-Light;writing-mode:lr-tb;fill:#040606;fill-opacity:1;fill-rule:nonzero;stroke:none"
           id="text150"><tspan
             x="0 21.926001 30.552 39.178001 60.344002 80.471878 99.053871 120.21987"
             y="0"
             sodipodi:role="line"
             id="tspan120">Filnavn:</tspan><tspan
             x="0 21.052 30.134001 39.368 62.889999 85.727997 96.596001 105.222 126.388 147.554"
             y="96"
             sodipodi:role="line"
             id="tspan122">1. PS-logo</tspan><tspan
             x="0 21.052 30.134001 39.368 62.889999 85.727997 96.596001 105.222 126.388 147.554 168.72 179.588 198.92999 220.09599 233.60391"
             y="144"
             sodipodi:role="line"
             id="tspan124">2. PS-logo-sort</tspan><tspan
             x="0 21.052 30.134001 39.368 62.889999 85.727997 96.596001 105.222 126.388 147.554 168.72 179.588 200.754 219.336 227.96201"
             y="192"
             sodipodi:role="line"
             id="tspan126">3. PS-logo-hvit</tspan><tspan
             x="0 21.052 30.134001 39.368 62.889999 85.727997 96.596001 105.222 126.388 147.554 168.72 179.588 200.754 219.336 227.96201 240.578"
             y="240"
             sodipodi:role="line"
             id="tspan128">4. PS-logo-hvit2</tspan><tspan
             x="0 21.052 30.134001 39.368 62.889999 85.727997 96.596001 116.622 137.78799 158.95399 180.12 190.98801 224.65601 244.226 265.392 276.26001 288.87601 308.44601 327.104 346.44601"
             y="288"
             sodipodi:role="line"
             id="tspan130">5. PS-Logo-med-tekst</tspan><tspan
             x="0 21.523401 42.675694 63.827995 76.44519 87.318184 102.40318 121.75568 140.42169 153.35429 161.98222 174.46951 187.08672 199.70393 218.29573 239.44803 259.02322 267.07596 276.31619 301.32791 322.48016 343.63245 364.78473 377.03085 398.18314 407.4234 430.96927 452.12155 460.74951"
             y="384"
             sodipodi:role="line"
             id="tspan132">Font-/skrifttype: Roboto Bold</tspan><tspan
             x="980 1005.004 1026.17"
             y="100"
             sodipodi:role="line"
             id="tspan134">Rød</tspan><tspan
             x="980 1004.3623 1036.7773 1059.8593 1084.1288 1092.1815 1101.4199 1122.4719 1143.5239 1152.7579 1163.6259 1172.8599 1193.9119 1214.9639 1224.1979 1235.0659 1244.2999 1265.3519 1286.4039 1295.6379 1306.5059 1315.7399"
             y="188"
             sodipodi:role="line"
             id="tspan136">CMYK: 11 - 99 - 96 - 2</tspan><tspan
             x="980 1005.004 1030.996 1054.556 1062.6121 1071.8459 1092.8979 1115.052 1136.104 1145.338 1156.2061 1165.4399 1186.4919 1207.5439 1216.778 1227.646 1236.88 1257.932"
             y="256"
             sodipodi:role="line"
             id="tspan138">RGB: 207 - 26 - 29</tspan><tspan
             x="980 1006.866 1028.754 1052.048 1060.104 1069.338 1092.8979 1112.582 1125.084 1146.136 1166.58 1187.632"
             y="324"
             sodipodi:role="line"
             id="tspan140">HEX: #cf1a1d</tspan><tspan
             x="1800 1822.838 1844.004 1857.5199"
             y="100"
             sodipodi:role="line"
             id="tspan142">Sort</tspan><tspan
             x="1800 1824.3623 1856.7772 1879.8593 1904.1285 1912.1813 1921.4202 1942.4722 1964.6261 1986.7802 1996.0142 2006.8821 2016.1161 2037.1681 2059.322 2081.4761 2090.7102 2101.5781 2110.812 2131.864 2154.0181 2176.1721 2185.406 2196.2742 2205.5081 2226.5601 2248.7141"
             y="188"
             sodipodi:role="line"
             id="tspan144">CMYK: 100 - 100 - 100 - 100</tspan><tspan
             x="1800 1825.004 1850.996 1874.556 1882.6121 1891.8459 1914 1923.234 1934.1021 1943.3361 1965.49 1974.724 1985.592 1994.826"
             y="256"
             sodipodi:role="line"
             id="tspan146">RGB: 0 - 0 - 0</tspan><tspan
             x="1800 1826.866 1848.754 1872.048 1880.104 1889.338 1912.8979 1933.95 1955.116 1976.168 1997.334 2018.386"
             y="324"
             sodipodi:role="line"
             id="tspan148">HEX: #4d4d4d</tspan></text></g></g></g></svg>
