<?xml version="1.0" encoding="UTF-8" standalone="no"?>
<svg
   xmlns:dc="http://purl.org/dc/elements/1.1/"
   xmlns:cc="http://creativecommons.org/ns#"
   xmlns:rdf="http://www.w3.org/1999/02/22-rdf-syntax-ns#"
   xmlns:svg="http://www.w3.org/2000/svg"
   xmlns="http://www.w3.org/2000/svg"
   xmlns:sodipodi="http://sodipodi.sourceforge.net/DTD/sodipodi-0.dtd"
   xmlns:inkscape="http://www.inkscape.org/namespaces/inkscape"
   version="1.1"
   id="svg2"
   xml:space="preserve"
   width="604.18665"
   height="525.96002"
   viewBox="0 0 604.18665 525.96002"
   sodipodi:docname="PS-Logo.eps"><metadata
     id="metadata8"><rdf:RDF><cc:Work
         rdf:about=""><dc:format>image/svg+xml</dc:format><dc:type
           rdf:resource="http://purl.org/dc/dcmitype/StillImage" /></cc:Work></rdf:RDF></metadata><defs
     id="defs6" /><sodipodi:namedview
     pagecolor="#ffffff"
     bordercolor="#666666"
     borderopacity="1"
     objecttolerance="10"
     gridtolerance="10"
     guidetolerance="10"
     inkscape:pageopacity="0"
     inkscape:pageshadow="2"
     inkscape:window-width="640"
     inkscape:window-height="480"
     id="namedview4" /><g
     id="g10"
     inkscape:groupmode="layer"
     inkscape:label="ink_ext_XXXXXX"
     transform="matrix(1.3333333,0,0,-1.3333333,0,525.96)"><g
       id="g12"
       transform="scale(0.1)"><path
         d="m 67.5117,275.129 h 66.5863 c 18.797,0 33.054,5.109 42.765,15.371 9.715,10.238 14.567,23.309 14.567,39.191 0,16.18 -4.821,29.547 -14.45,40.11 -9.632,10.551 -23.929,15.828 -42.882,15.828 H 67.5117 Z m 0,-52.02 V 101.039 H 0 V 437.66 h 134.098 c 38.679,0 69.125,-9.879 91.316,-29.601 22.199,-19.731 33.293,-45.7 33.293,-77.911 0,-32.218 -11.094,-58.109 -33.293,-77.679 -22.191,-19.578 -52.637,-29.36 -91.316,-29.36 H 67.5117"
         style="fill:#040606;fill-opacity:1;fill-rule:nonzero;stroke:none"
         id="path14" /><path
         d="m 402.691,146.109 c 11.872,0 22.426,2.93 31.672,8.789 9.25,5.864 15.492,12.641 18.727,20.34 v 35.391 h -37.684 c -14.332,0 -25.203,-3.59 -32.597,-10.758 -7.399,-7.16 -11.094,-15.84 -11.094,-26.012 0,-8.32 2.773,-15.019 8.32,-20.109 5.547,-5.09 13.102,-7.641 22.656,-7.641 z m 61.727,-45.07 c -2.465,5.699 -4.582,11.699 -6.355,18.031 -1.774,6.321 -3.043,12.789 -3.817,19.418 -6.933,-12.179 -16.066,-22.277 -27.394,-30.289 -11.329,-8.008 -24.856,-12.0193 -40.575,-12.0193 -26.203,0 -46.394,6.7423 -60.574,20.2303 -14.18,13.481 -21.269,31.86 -21.269,55.141 0,24.5 9.437,43.5 28.32,56.988 18.883,13.481 46.43,20.231 82.652,20.231 h 37.684 v 19.878 c 0,12.02 -3.156,21.352 -9.477,27.973 -6.324,6.629 -15.644,9.938 -27.972,9.938 -10.95,0 -19.387,-2.649 -25.321,-7.969 -5.929,-5.32 -8.898,-12.68 -8.898,-22.082 l -65.195,0.23 -0.231,1.391 c -1.086,21.121 8.09,39.34 27.512,54.672 19.418,15.34 44.926,23.008 76.519,23.008 29.907,0 54.184,-7.598 72.828,-22.77 18.649,-15.187 27.973,-36.801 27.973,-64.859 V 164.84 c 0,-11.711 0.891,-22.731 2.664,-33.051 1.766,-10.328 4.582,-20.578 8.438,-30.75 h -67.512"
         style="fill:#040606;fill-opacity:1;fill-rule:nonzero;stroke:none"
         id="path16" /><path
         d="m 720.992,293.148 -24.738,0.704 c -10.02,0 -18.262,-2.082 -24.734,-6.243 -6.477,-4.16 -11.415,-10.019 -14.801,-17.57 v -169 h -67.278 v 250.152 h 62.653 l 3.008,-36.992 c 5.855,13.102 13.449,23.313 22.773,30.629 9.32,7.32 20.074,10.981 32.254,10.981 3.387,0 6.508,-0.27 9.363,-0.809 2.848,-0.539 5.738,-1.191 8.668,-1.961 l -7.168,-59.891"
         style="fill:#040606;fill-opacity:1;fill-rule:nonzero;stroke:none"
         id="path18" /><path
         d="M 858.734,205.762 H 840.238 V 101.039 H 772.73 v 360.66 h 67.508 V 257.09 h 16.649 l 58.023,94.101 h 78.149 L 913.066,237.898 1005.31,101.039 h -77.451 l -69.125,104.723"
         style="fill:#040606;fill-opacity:1;fill-rule:nonzero;stroke:none"
         id="path20" /><path
         d="m 1114.84,101.039 h -67.51 v 250.152 h 67.51 z m 0,310.02 h -67.51 v 50.64 h 67.51 v -50.64"
         style="fill:#040606;fill-opacity:1;fill-rule:nonzero;stroke:none"
         id="path22" /><path
         d="m 1249.58,351.191 3,-35.839 c 8.32,12.789 18.57,22.738 30.75,29.828 12.17,7.09 25.82,10.629 40.92,10.629 25.28,0 45,-7.938 59.19,-23.809 14.18,-15.879 21.27,-40.77 21.27,-74.68 V 101.039 h -67.74 v 156.41 c 0,16.84 -3.4,28.77 -10.18,35.801 -6.78,7.02 -17.03,10.539 -30.75,10.539 -8.94,0 -16.95,-1.82 -24.04,-5.449 -7.09,-3.621 -13.03,-8.762 -17.8,-15.399 V 101.039 h -67.51 v 250.152 h 62.89"
         style="fill:#040606;fill-opacity:1;fill-rule:nonzero;stroke:none"
         id="path24" /><path
         d="m 1529.73,219.129 c 0,-22.008 3.7,-39.34 11.1,-51.981 7.4,-12.628 19.42,-18.949 36.06,-18.949 10.33,0 19.08,1.903 26.24,5.699 7.17,3.801 12.91,9.332 17.23,16.633 v 109.297 c -4.32,7.602 -10.06,13.492 -17.23,17.684 -7.16,4.187 -15.76,6.277 -25.77,6.277 -16.5,0 -28.56,-7.359 -36.18,-22.09 -7.64,-14.738 -11.45,-33.969 -11.45,-57.679 z m -67.51,4.902 c 0,39.457 8.6,71.278 25.78,95.481 17.19,24.199 41.27,36.297 72.25,36.297 14.02,0 26.36,-3.161 36.99,-9.481 10.64,-6.316 19.73,-15.328 27.28,-27.047 l 5.32,31.91 h 58.26 v -249 c 0,-32.523 -10.67,-57.6793 -32.02,-75.4801 C 1634.73,8.91016 1605.02,0 1566.95,0 c -12.63,0 -26.05,1.73828 -40.22,5.21094 -14.19,3.45703 -27.29,8.19926 -39.31,14.20706 l 12.49,50.4023 c 10.32,-4.9297 20.84,-8.6719 31.55,-11.2109 10.72,-2.5508 22.39,-3.8086 35.03,-3.8086 18.5,0 32.1,3.8476 40.81,11.5586 8.71,7.6992 13.06,19.7187 13.06,36.0586 v 22.66 c -7.4,-9.41 -16.11,-16.566 -26.13,-21.508 -10.02,-4.9294 -21.5,-7.3903 -34.44,-7.3903 -30.67,0 -54.6,11.2893 -71.79,33.8713 -17.18,22.578 -25.78,52.277 -25.78,89.129 v 4.851"
         style="fill:#040606;fill-opacity:1;fill-rule:nonzero;stroke:none"
         id="path26" /><path
         d="m 2080.1,188.891 c 0,12.949 -4.58,23.347 -13.75,31.211 -9.17,7.859 -25.24,15.257 -48.21,22.199 -40.07,11.558 -70.36,25.269 -90.85,41.148 -20.51,15.871 -30.75,37.602 -30.75,65.192 0,27.589 11.75,50.129 35.25,67.629 23.51,17.492 53.52,26.242 90.06,26.242 36.98,0 67.11,-9.821 90.39,-29.481 23.27,-19.652 34.52,-43.89 33.76,-72.711 l -0.47,-1.379 h -65.43 c 0,15.559 -5.2,28.161 -15.6,37.797 -10.4,9.633 -25.01,14.442 -43.81,14.442 -18.03,0 -31.99,-4 -41.85,-12.02 -9.87,-8.019 -14.8,-18.262 -14.8,-30.75 0,-11.41 5.28,-20.769 15.84,-28.09 10.56,-7.32 28.79,-15.07 54.68,-23.23 37.14,-10.328 65.27,-23.969 84.39,-40.93 19.11,-16.949 28.66,-39.219 28.66,-66.801 0,-28.828 -11.36,-51.57 -34.1,-68.211 -22.73,-16.648 -52.75,-24.9683 -90.05,-24.9683 -36.68,0 -68.67,9.4413 -95.95,28.3203 -27.28,18.879 -40.53,45.352 -39.76,79.422 l 0.46,1.379 h 65.66 c 0,-20.043 6.13,-34.711 18.38,-44.039 12.26,-9.332 29.32,-13.981 51.21,-13.981 18.34,0 32.37,3.77 42.08,11.321 9.71,7.546 14.56,17.648 14.56,30.289"
         style="fill:#040606;fill-opacity:1;fill-rule:nonzero;stroke:none"
         id="path28" /><path
         d="m 2267.55,223.691 c 0,-22.781 4.01,-41.05 12.03,-54.832 8,-13.769 20.95,-20.66 38.83,-20.66 17.42,0 30.17,6.93 38.27,20.77 8.09,13.851 12.13,32.09 12.13,54.722 v 4.848 c 0,22.152 -4.08,40.242 -12.24,54.242 -8.19,14.008 -21.05,21.008 -38.62,21.008 -17.42,0 -30.17,-7.039 -38.26,-21.117 -8.09,-14.094 -12.14,-32.133 -12.14,-54.133 z m -67.28,4.739 c 0,37.289 10.41,67.851 31.21,91.66 20.81,23.82 49.64,35.719 86.47,35.719 37,0 65.97,-11.86 86.94,-35.598 20.95,-23.742 31.44,-54.332 31.44,-91.781 v -4.871 c 0,-37.598 -10.45,-68.239 -31.33,-91.887 -20.89,-23.66 -49.75,-35.4923 -86.59,-35.4923 -36.98,0 -65.92,11.8323 -86.81,35.4923 -20.89,23.648 -31.33,54.289 -31.33,91.887 v 4.871"
         style="fill:#040606;fill-opacity:1;fill-rule:nonzero;stroke:none"
         id="path30" /><path
         d="m 2566.44,101.039 h -67.51 v 360.66 h 67.51 v -360.66"
         style="fill:#040606;fill-opacity:1;fill-rule:nonzero;stroke:none"
         id="path32" /><path
         d="m 2792.25,137.102 c -7.7,-13.102 -17.49,-23.192 -29.35,-30.282 -11.88,-7.0895 -25.52,-10.6403 -40.93,-10.6403 -26.36,0 -46.97,8.4413 -61.85,25.3083 -14.87,16.883 -22.3,43.121 -22.3,78.723 v 150.98 h 67.27 V 199.398 c 0,-18.218 3.09,-31.308 9.25,-39.269 6.16,-7.949 15.25,-11.93 27.29,-11.93 10.78,0 20.03,1.731 27.73,5.211 7.71,3.469 14.02,8.61 18.97,15.41 v 182.371 h 67.5 V 101.039 h -57.56 l -6.02,36.063"
         style="fill:#040606;fill-opacity:1;fill-rule:nonzero;stroke:none"
         id="path34" /><path
         d="m 3004.43,412.449 v -61.258 h 42.08 v -47.402 h -42.08 V 176.41 c 0,-9.719 2,-16.648 6.01,-20.808 4.01,-4.161 9.41,-6.243 16.19,-6.243 3.54,0 6.59,0.192 9.13,0.571 2.55,0.379 5.5,1.05 8.9,1.961 l 5.78,-48.77 c -6.78,-2.32 -13.4,-4.0507 -19.88,-5.2108 -6.47,-1.1485 -13.49,-1.7305 -21.04,-1.7305 -23.27,0 -41.19,6.3983 -53.75,19.1913 -12.56,12.789 -18.84,33.059 -18.84,60.797 v 127.621 h -36.53 v 47.402 h 36.53 v 61.258 h 67.5"
         style="fill:#040606;fill-opacity:1;fill-rule:nonzero;stroke:none"
         id="path36" /><path
         d="m 3178.01,101.039 h -67.51 v 250.152 h 67.51 z m 0,310.02 h -67.51 v 50.64 h 67.51 v -50.64"
         style="fill:#040606;fill-opacity:1;fill-rule:nonzero;stroke:none"
         id="path38" /><path
         d="m 3307.89,223.691 c 0,-22.781 4.01,-41.05 12.02,-54.832 8.01,-13.769 20.96,-20.66 38.84,-20.66 17.42,0 30.17,6.93 38.27,20.77 8.08,13.851 12.14,32.09 12.14,54.722 v 4.848 c 0,22.152 -4.1,40.242 -12.26,54.242 -8.17,14.008 -21.04,21.008 -38.61,21.008 -17.42,0 -30.17,-7.039 -38.27,-21.117 -8.08,-14.094 -12.13,-32.133 -12.13,-54.133 z m -67.28,4.739 c 0,37.289 10.41,67.851 31.21,91.66 20.81,23.82 49.63,35.719 86.47,35.719 36.99,0 65.96,-11.86 86.93,-35.598 20.96,-23.742 31.45,-54.332 31.45,-91.781 v -4.871 c 0,-37.598 -10.45,-68.239 -31.33,-91.887 -20.89,-23.66 -49.75,-35.4923 -86.59,-35.4923 -36.99,0 -65.93,11.8323 -86.81,35.4923 -20.89,23.648 -31.33,54.289 -31.33,91.887 v 4.871"
         style="fill:#040606;fill-opacity:1;fill-rule:nonzero;stroke:none"
         id="path40" /><path
         d="m 3597.52,351.191 3,-35.839 c 8.33,12.789 18.58,22.738 30.75,29.828 12.18,7.09 25.81,10.629 40.92,10.629 25.29,0 45.01,-7.938 59.19,-23.809 14.18,-15.879 21.27,-40.77 21.27,-74.68 V 101.039 h -67.74 v 156.41 c 0,16.84 -3.39,28.77 -10.17,35.801 -6.79,7.02 -17.03,10.539 -30.75,10.539 -8.94,0 -16.95,-1.82 -24.04,-5.449 -7.09,-3.621 -13.03,-8.762 -17.81,-15.399 V 101.039 h -67.51 v 250.152 h 62.89"
         style="fill:#040606;fill-opacity:1;fill-rule:nonzero;stroke:none"
         id="path42" /><path
         d="m 4040.61,226.57 h 84.85 l -41.62,132.25 h -1.38 z m 101.49,-52.941 h -118.13 l -22.89,-72.59 h -68.2 l 115.83,336.621 h 69.12 L 4233.2,101.039 H 4165 l -22.9,72.59"
         style="fill:#040606;fill-opacity:1;fill-rule:nonzero;stroke:none"
         id="path44" /><path
         d="m 4463.88,188.891 c 0,12.949 -4.59,23.347 -13.76,31.211 -9.17,7.859 -25.24,15.257 -48.2,22.199 -40.08,11.558 -70.36,25.269 -90.86,41.148 -20.5,15.871 -30.75,37.602 -30.75,65.192 0,27.589 11.76,50.129 35.26,67.629 23.5,17.492 53.52,26.242 90.05,26.242 36.99,0 67.12,-9.821 90.39,-29.481 23.27,-19.652 34.53,-43.89 33.76,-72.711 l -0.47,-1.379 h -65.42 c 0,15.559 -5.2,28.161 -15.6,37.797 -10.41,9.633 -25.01,14.442 -43.82,14.442 -18.03,0 -31.98,-4 -41.85,-12.02 -9.86,-8.019 -14.79,-18.262 -14.79,-30.75 0,-11.41 5.28,-20.769 15.84,-28.09 10.55,-7.32 28.78,-15.07 54.67,-23.23 37.14,-10.328 65.28,-23.969 84.39,-40.93 19.11,-16.949 28.67,-39.219 28.67,-66.801 0,-28.828 -11.38,-51.57 -34.1,-68.211 -22.74,-16.648 -52.75,-24.9683 -90.06,-24.9683 -36.68,0 -68.66,9.4413 -95.94,28.3203 -27.28,18.879 -40.53,45.352 -39.76,79.422 l 0.46,1.379 h 65.66 c 0,-20.043 6.12,-34.711 18.38,-44.039 12.25,-9.332 29.32,-13.981 51.2,-13.981 18.35,0 32.37,3.77 42.08,11.321 9.72,7.546 14.57,17.648 14.57,30.289"
         style="fill:#040606;fill-opacity:1;fill-rule:nonzero;stroke:none"
         id="path46" /><path
         d="m 3237.33,2566.27 c 0,0 -7.84,-219.34 -186.77,-299.49 h 309.99 c 0,0 78.01,12.53 86.88,-91.03 9.26,-108.11 4.91,-725.37 4.91,-725.37 0,0 25.27,-265.3 -324.25,-227.4 H 1321.56 c 0,0 -214.76,-14.74 -237.92,210.56 l -2.11,296.87 c 0,0 10.8,74.06 -50.09,76.91 -60.897,2.86 -200.764,1.91 -200.764,1.91 0,0 -62.801,8.56 -64.703,-63.75 -1.907,-72.32 0.953,-372.99 0.953,-372.99 0,0 10.793,-417.631 443.874,-464.49 l 2058.38,-2.762 c 0,0 434.59,-22.66 498.84,442.162 l 3.78,857.86 c 0,0 -12.63,326.64 -312.55,360.51 l -221.92,0.5"
         style="fill:#040606;fill-opacity:1;fill-rule:nonzero;stroke:none"
         id="path48" /><path
         d="m 3710.46,3033.61 c -75.57,-1.45 -191.2,-2.9 -199.17,-3 -0.34,0 -0.58,0.02 -0.91,0.09 -5.68,1.09 -59.36,13.47 -60.12,91.6 -0.89,99.35 -0.02,291.13 0,295.53 0,0.11 0,0.04 0,0.15 -0.27,4.41 -14.1,209.8 -226.1,206.93 -213.02,-2.98 -1897.28,-11.39 -1918.99,-11.5 -0.17,0 -0.26,0 -0.43,0.02 -7.98,0.79 -226.02,19.91 -222.98,-257.72 3.15,-278.1 3.2,-510.59 3.2,-518.4 0,-0.17 0,-0.22 -0.02,-0.39 -0.8,-7.77 -24.07,-254.41 238.82,-254.41 v 0 c 24.74,0 44.8,-20.06 44.8,-44.8 v -226.1 c 0,-24.74 -20.06,-44.8 -44.8,-44.8 h -66 c 0,0 -452.428,1.4 -493.373,444.24 -0.016,0.17 -0.028,0.34 -0.028,0.51 v 816.55 c 0,0.27 0.02,0.52 0.071,0.8 2.3,13.4 64.965,356.89 444.79,407.25 0.22,0.03 0.45,0.05 0.68,0.05 l 2077.18,8.1 c 0.12,0 0.16,0 0.28,0.01 5.46,0.42 243.72,17.39 403.16,-221.7 0.09,-0.14 0.16,-0.23 0.27,-0.36 2.93,-3.44 57.14,-68.8 77.32,-213.81 0.03,-0.22 0.05,-0.46 0.05,-0.68 l 2.9,-382.14 c 0,-0.26 0.02,-0.52 0.07,-0.77 1.1,-6.09 14.88,-89.81 -60.67,-91.25"
         style="fill:#040606;fill-opacity:1;fill-rule:nonzero;stroke:none"
         id="path50" /><path
         d="m 1628.74,2161.5 c 0,0 64.16,4.76 64.16,-60.24 0,-65.01 0,-623.05 0,-623.05 0,0 11.88,-73.25 -78.94,-67.39 l -184.36,-0.2 c 0,0 -60.18,-10.71 -60.18,59.64 0,70.35 0,616.32 0,616.32 0,0 -13.29,74.43 54.06,76.47 76.5,2.31 205.26,-1.55 205.26,-1.55"
         style="fill:#d41f2b;fill-opacity:1;fill-rule:nonzero;stroke:none"
         id="path52" /><path
         d="m 3162.46,2569.91 c 0,0 -25.1,-269.9 -276.5,-303.1 h -1417.4 c -22.09,0 -40,17.91 -40,40 v 235.91 c 0,22.05 17.81,39.93 39.85,40 373.29,1.3 1351.45,9.18 1351.45,9.18 0,0 22,-3.19 22,40.91 0,44 -3.11,326.8 -3.11,326.8 0,0 22.01,56.6 -84.89,50.3 -106.8,-6.3 -1065.5,-6.3 -1065.5,-6.3 l 3.2,-289.1 c 0,0 2.6,-53.2 -50.3,-53.5 -69.2,-0.3 -220,3.2 -220,3.2 0,0 -44,-3.2 -47.2,50.3 -3.1,53.4 -3.1,543.7 -3.1,543.7 0,0 0,66 62.8,69.2 62.9,3.1 1386.1,6.3 1386.1,6.3 0,0 260.9,18.79 336.39,-257.8 l 6.21,-506"
         style="fill:#d41f2b;fill-opacity:1;fill-rule:nonzero;stroke:none"
         id="path54" /></g></g></svg>
