<?xml version="1.0" encoding="UTF-8" standalone="no"?>
<svg
   xmlns:dc="http://purl.org/dc/elements/1.1/"
   xmlns:cc="http://creativecommons.org/ns#"
   xmlns:rdf="http://www.w3.org/1999/02/22-rdf-syntax-ns#"
   xmlns:svg="http://www.w3.org/2000/svg"
   xmlns="http://www.w3.org/2000/svg"
   xmlns:sodipodi="http://sodipodi.sourceforge.net/DTD/sodipodi-0.dtd"
   xmlns:inkscape="http://www.inkscape.org/namespaces/inkscape"
   version="1.1"
   id="svg2"
   xml:space="preserve"
   width="1071.12"
   height="1065.6934"
   viewBox="0 0 1071.12 1065.6934"
   sodipodi:docname="Vakuumheis-Logo.eps"><metadata
     id="metadata8"><rdf:RDF><cc:Work
         rdf:about=""><dc:format>image/svg+xml</dc:format><dc:type
           rdf:resource="http://purl.org/dc/dcmitype/StillImage" /></cc:Work></rdf:RDF></metadata><defs
     id="defs6" /><sodipodi:namedview
     pagecolor="#ffffff"
     bordercolor="#666666"
     borderopacity="1"
     objecttolerance="10"
     gridtolerance="10"
     guidetolerance="10"
     inkscape:pageopacity="0"
     inkscape:pageshadow="2"
     inkscape:window-width="640"
     inkscape:window-height="480"
     id="namedview4" /><g
     id="g10"
     inkscape:groupmode="layer"
     inkscape:label="ink_ext_XXXXXX"
     transform="matrix(1.3333333,0,0,-1.3333333,0,1065.6933)"><g
       id="g12"
       transform="scale(0.1)"><path
         d="m 3136.03,4630.17 c -146.63,-0.3 -293.26,-0.57 -439.88,-0.9 -72.2,-0.16 -81.2,-8.96 -81.2,-79.86 -0.02,-893.16 -0.01,-1786.32 -0.02,-2679.48 0,-81.78 -5.55,-87.25 -88.59,-87.25 -306.61,-0.01 -613.21,-0.01 -919.82,0 -80.3,0 -86.56,6.4 -86.56,89.26 -0.02,1696.32 -0.01,3392.66 -0.01,5088.99 -0.01,316.6 -0.05,633.21 0.03,949.81 0.01,71.47 10.24,81.9 79.75,81.92 296.61,0.05 593.21,0.06 889.83,-0.01 68.12,-0.02 77.01,-9.13 77.02,-78.05 0.05,-313.27 0.04,-626.54 0.05,-939.81 -54.87,-0.61 -109.74,-1.46 -164.61,-1.79 -78.38,-0.47 -100.5,-29.9 -74.73,-101.98 36.34,-101.65 74.52,-202.65 110.19,-304.53 43.32,-123.73 95.15,-244.48 130.22,-371.09 -0.37,-242.25 -1.12,-484.49 -0.77,-726.74 0.07,-51.27 18.03,-68.42 69.64,-69.05 72.99,-0.91 146,0.17 219,0.41 46.98,-98.91 78.24,-203.81 115.73,-306.29 56.33,-154 109.95,-308.99 164.73,-463.56"
         style="fill:#100f0d;fill-opacity:1;fill-rule:nonzero;stroke:none"
         id="path14" /><path
         d="m 5305.28,6962.45 c 0.79,204.86 1.1,409.71 2.56,614.57 0.82,114.86 3.66,229.71 5.37,344.57 0.87,58.3 12.58,70.96 69.9,71 274.98,0.2 549.96,0.21 824.94,-0.04 53.77,-0.04 67.43,-14.23 68.53,-67.8 0.17,-8.33 0.02,-16.66 0.02,-24.99 0,-2008.18 0,-4016.36 0,-6024.53 0,-89.76 -2.83,-92.56 -92.88,-92.56 -269.97,0 -539.95,-0.01 -809.93,0 -77.88,0 -87.2,9.55 -87.2,89.9 -0.01,886.59 -0.01,1773.19 -0.01,2659.79 0,91.76 -1.81,93.56 -91.26,93.66 -146.65,0.15 -293.3,0.4 -439.94,0.62 33.31,99.17 65.71,198.66 100.15,297.43 55.8,160.08 112.94,319.68 169.52,479.48 63.26,-0.29 126.52,-0.96 189.78,-0.77 59.9,0.18 74.01,11.89 74.61,73.07 2.31,232.96 2.86,465.93 4.08,698.89 12.9,62.13 38.03,120.31 58.54,179.95 60.58,176.15 122.23,351.93 182.7,528.12 15.93,46.45 -0.82,86.61 -41.23,88.01 -62.61,2.18 -126.38,12.34 -188.25,-8.37"
         style="fill:#100f0d;fill-opacity:1;fill-rule:nonzero;stroke:none"
         id="path16" /><path
         d="m 5305.28,6962.45 c 61.87,20.71 125.64,10.55 188.25,8.37 40.41,-1.4 57.16,-41.56 41.23,-88.01 -60.47,-176.19 -122.12,-351.97 -182.7,-528.12 -20.51,-59.64 -45.64,-117.82 -58.53,-179.96 -37.64,-80.96 -61.43,-166.93 -90.6,-250.93 -60.12,-173.13 -118.68,-346.8 -177.88,-520.25 -56.58,-159.8 -113.72,-319.4 -169.52,-479.48 -34.44,-98.77 -66.84,-198.26 -100.15,-297.43 -63.63,-180.07 -127.92,-359.89 -190.74,-540.24 -142.15,-408.07 -283.99,-816.25 -424.71,-1224.82 -14.73,-42.78 -37.81,-61.7 -83.92,-59.6 -64.86,2.94 -130.07,3.24 -194.89,-0.08 -48.07,-2.46 -67.22,21.93 -81.86,62.51 -180.99,501.91 -362.84,1003.52 -544.92,1505.05 -31.69,87.3 -65.5,173.82 -98.32,260.7 -54.77,154.58 -108.39,309.57 -164.72,463.57 -37.49,102.48 -68.75,207.38 -115.75,306.28 -27.28,108.11 -71.74,210.3 -109.71,314.66 -58.43,160.59 -110.78,323.45 -178.14,480.73 -35.07,126.61 -86.9,247.36 -130.22,371.09 -35.67,101.88 -73.85,202.88 -110.19,304.53 -25.77,72.08 -3.65,101.51 74.73,101.98 54.87,0.33 109.74,1.18 164.61,1.79 148.22,-0.68 296.51,-4.15 444.64,-0.69 59.09,1.39 85.33,-20.96 104.38,-74.7 172.08,-485.49 346.49,-970.14 520.39,-1454.98 5.58,-15.56 12.99,-30.47 19.56,-45.69 54.35,-154.57 107.34,-309.64 163.5,-463.55 37.37,-102.46 67.28,-207.8 115.06,-306.36 0.07,-3.34 -0.74,-6.98 0.31,-9.96 70.48,-198.89 140.87,-397.81 212.07,-596.44 7.86,-21.92 26.67,-35.8 50.16,-35.18 28.05,0.74 44.61,19.32 53.7,44.98 69.87,197.39 139.8,394.77 209.7,592.15 54.87,151.1 110.63,301.87 164.31,453.39 38.16,107.69 82.03,213.42 112.48,323.78 69.57,168.69 125.58,342.33 187.67,513.75 120.32,332.19 238.84,665.02 358.39,997.5 6.12,17.03 14.83,33.13 22.33,49.66"
         style="fill:#d11e26;fill-opacity:1;fill-rule:nonzero;stroke:none"
         id="path18" /><path
         d="m 4736.89,5401.54 c -30.45,-110.36 -74.32,-216.09 -112.48,-323.78 -53.68,-151.52 -109.44,-302.29 -164.32,-453.39 -175.31,1.48 -350.63,2.97 -525.93,4.45 -47.78,98.56 -77.69,203.9 -115.06,306.36 -56.16,153.91 -109.15,308.98 -163.5,463.55 360.43,0.94 720.86,1.87 1081.29,2.81"
         style="fill:#100f0d;fill-opacity:1;fill-rule:nonzero;stroke:none"
         id="path20" /><path
         d="m 257.289,224.012 10.035,-52.84 h 3.172 l 10.567,52.84 94.039,358.718 H 536.234 L 341.816,11.1016 H 194.418 L 0,582.73 h 161.137 l 96.152,-358.718"
         style="fill:#100f0d;fill-opacity:1;fill-rule:nonzero;stroke:none"
         id="path22" /><path
         d="m 842.867,114.109 c 27.117,0 51.242,6.692 72.375,20.082 21.137,13.379 35.403,28.879 42.793,46.5 v 80.829 h -86.109 c -32.754,0 -57.59,-8.2 -74.492,-24.571 -16.907,-16.379 -25.36,-36.187 -25.36,-59.437 0,-19.012 6.34,-34.332 19.02,-45.953 12.676,-11.637 29.929,-17.45 51.773,-17.45 z M 983.926,11.1016 c -5.641,13.0195 -10.485,26.75 -14.528,41.207 -4.054,14.4297 -6.96,29.2305 -8.718,44.3711 C 944.828,68.8594 923.965,45.7813 898.074,27.4688 872.188,9.16016 841.277,0 805.355,0 745.473,0 699.34,15.3984 666.938,46.2305 634.531,77.0391 618.336,119.051 618.336,172.23 c 0,56 21.566,99.399 64.715,130.231 43.14,30.809 106.097,46.219 188.875,46.219 h 86.109 v 45.441 c 0,27.469 -7.219,48.777 -21.656,63.93 -14.445,15.14 -35.754,22.711 -63.93,22.711 -25.008,0 -44.297,-6.071 -57.847,-18.223 -13.563,-12.16 -20.34,-28.969 -20.34,-50.457 l -148.985,0.527 -0.527,3.172 c -2.469,48.258 18.492,89.899 62.867,124.949 44.379,35.04 102.664,52.559 174.871,52.559 68.328,0 123.802,-17.348 166.422,-52.039 42.61,-34.68 63.92,-84.09 63.92,-148.18 V 156.91 c 0,-26.769 2.03,-51.961 6.08,-75.5506 4.04,-23.5977 10.47,-47.0196 19.28,-70.2578 H 983.926"
         style="fill:#100f0d;fill-opacity:1;fill-rule:nonzero;stroke:none"
         id="path24" /><path
         d="m 1480.22,250.422 h -42.26 V 11.1016 H 1283.69 V 835.27 h 154.27 V 367.711 H 1476 l 132.6,215.019 h 178.57 L 1604.38,323.859 1815.17,11.1016 H 1638.19 L 1480.22,250.422"
         style="fill:#100f0d;fill-opacity:1;fill-rule:nonzero;stroke:none"
         id="path26" /><path
         d="M 2266.56,93.5117 C 2248.95,63.5781 2226.59,40.5 2199.47,24.3008 2172.34,8.10938 2141.17,0 2105.96,0 2045.73,0 1998.62,19.2891 1964.63,57.8516 1930.64,96.418 1913.65,156.379 1913.65,237.738 V 582.73 h 153.74 V 235.891 c 0,-41.653 7.04,-71.571 21.13,-89.75 14.09,-18.18 34.87,-27.27 62.34,-27.27 24.65,0 45.79,3.969 63.4,11.91 17.61,7.938 32.04,19.68 43.32,35.219 v 416.73 h 154.27 V 11.1016 H 2280.3 l -13.74,82.4101"
         style="fill:#100f0d;fill-opacity:1;fill-rule:nonzero;stroke:none"
         id="path28" /><path
         d="M 2931.39,93.5117 C 2913.77,63.5781 2891.41,40.5 2864.29,24.3008 2837.17,8.10938 2806,0 2770.78,0 c -60.23,0 -107.34,19.2891 -141.32,57.8516 -34,38.5664 -50.98,98.5274 -50.98,179.8864 V 582.73 h 153.73 V 235.891 c 0,-41.653 7.05,-71.571 21.13,-89.75 14.09,-18.18 34.87,-27.27 62.35,-27.27 24.65,0 45.78,3.969 63.4,11.91 17.6,7.938 32.04,19.68 43.32,35.219 v 416.73 h 154.26 V 11.1016 h -131.55 l -13.73,82.4101"
         style="fill:#100f0d;fill-opacity:1;fill-rule:nonzero;stroke:none"
         id="path30" /><path
         d="m 3390.18,582.73 6.33,-75.55 c 18.31,27.468 41.3,48.691 68.95,63.66 27.65,14.961 59.61,22.449 95.89,22.449 36.62,0 67.97,-8.098 94.04,-24.289 26.06,-16.211 45.78,-40.691 59.17,-73.441 17.61,30.64 40.5,54.589 68.68,71.839 28.17,17.262 61.28,25.891 99.32,25.891 56.35,0 100.82,-19.461 133.4,-58.379 32.58,-38.91 48.86,-98.18 48.86,-177.769 V 11.1016 H 3910.57 V 358.461 c 0,43.418 -7.05,73.598 -21.14,90.551 -14.09,16.937 -35.05,25.418 -62.87,25.418 -21.84,0 -40.77,-4.86 -56.79,-14.559 -16.03,-9.711 -28.8,-23.223 -38.31,-40.512 0,-6.711 0.18,-12.449 0.53,-17.218 0.35,-4.762 0.53,-9.621 0.53,-14.563 V 11.1016 H 3578.78 V 358.461 c 0,42.359 -7.05,72.277 -21.13,89.758 -14.09,17.472 -35.22,26.211 -63.4,26.211 -20.78,0 -39.01,-3.989 -54.68,-11.93 -15.67,-7.941 -28.62,-19.148 -38.83,-33.621 V 11.1016 H 3247 V 582.73 h 143.18"
         style="fill:#100f0d;fill-opacity:1;fill-rule:nonzero;stroke:none"
         id="path32" /><path
         d="m 4387.83,510.352 c 17.97,26.058 39.97,46.398 66.05,61.019 26.05,14.609 54.94,21.918 86.64,21.918 59.52,0 106.27,-19.809 140.26,-59.43 33.99,-39.621 50.99,-100.82 50.99,-183.578 V 11.1016 H 4577.5 V 352.102 c 0,44.476 -7.84,75.988 -23.52,94.519 -15.67,18.539 -39,27.809 -70,27.809 -21.13,0 -39.8,-3.801 -55.99,-11.391 -16.2,-7.59 -29.59,-18.258 -40.16,-32.027 V 11.1016 H 4233.56 V 835.27 h 154.27 V 510.352"
         style="fill:#100f0d;fill-opacity:1;fill-rule:nonzero;stroke:none"
         id="path34" /><path
         d="m 5141.42,474.43 c -28.53,0 -51.08,-10.918 -67.63,-32.758 -16.55,-21.844 -26.77,-50.543 -30.64,-86.113 l 1.59,-2.649 h 189.13 v 13.738 c 0,32.762 -7.66,58.911 -22.98,78.454 -15.32,19.546 -38.49,29.328 -69.47,29.328 z M 5155.16,0 c -82.43,0 -148.29,26.418 -197.6,79.25 -49.31,52.832 -73.96,119.922 -73.96,201.289 v 21.121 c 0,84.891 23.32,154.809 70,209.75 46.66,54.942 109.27,82.238 187.82,81.879 77.12,0 137,-23.238 179.62,-69.73 42.61,-46.5 63.93,-109.36 63.93,-188.61 v -84 h -341.29 l -1.06,-3.148 c 2.82,-37.539 15.41,-68.422 37.78,-92.621 22.35,-24.211 52.73,-36.309 91.13,-36.309 34.15,0 62.51,3.438 85.06,10.301 22.53,6.867 47.19,17.699 73.96,32.488 l 41.74,-95.3202 c -23.25,-19.1093 -53.72,-34.9414 -91.4,-47.5 C 5243.19,6.28125 5201.29,0 5155.16,0"
         style="fill:#100f0d;fill-opacity:1;fill-rule:nonzero;stroke:none"
         id="path36" /><path
         d="M 5691.07,11.1016 H 5536.81 V 582.73 h 154.26 z m 0,708.4574 H 5536.81 V 835.27 h 154.26 V 719.559"
         style="fill:#100f0d;fill-opacity:1;fill-rule:nonzero;stroke:none"
         id="path38" /><path
         d="m 6181.03,168.539 c 0,16.902 -8.19,31.512 -24.57,43.852 -16.38,12.32 -46.75,23.238 -91.14,32.75 -67.61,13.73 -118.6,34.07 -152.94,61.007 -34.34,26.954 -51.51,63.672 -51.51,110.161 0,49.312 20.68,91.132 62.08,125.472 41.38,34.348 96.76,51.508 166.15,51.508 72.9,0 130.93,-17.09 174.07,-51.238 43.15,-34.172 63.84,-77.321 62.08,-129.442 l -1.05,-3.16 h -148.99 c 0,22.891 -7.31,41.551 -21.92,55.992 -14.62,14.45 -36.01,21.661 -64.19,21.661 -25.01,0 -44.65,-6.071 -58.9,-18.223 -14.27,-12.149 -21.4,-27.391 -21.4,-45.699 0,-17.621 7.48,-32.051 22.45,-43.321 14.96,-11.281 45.34,-21.308 91.13,-30.121 70.44,-14.078 122.75,-34.789 156.91,-62.07 34.16,-27.309 51.25,-64.898 51.25,-112.789 0,-51.43 -22.01,-93.4298 -66.04,-126.0079 C 6220.47,16.2891 6162.35,0 6090.16,0 6014.08,0 5953.94,19.2891 5909.74,57.8516 5865.54,96.418 5844.49,140.352 5846.6,189.66 l 1.07,3.168 h 141.05 c 1.06,-30.637 11.09,-52.828 30.12,-66.558 19.01,-13.739 43.85,-20.598 74.49,-20.598 28.53,0 50.26,5.617 65.24,16.898 14.97,11.27 22.46,26.59 22.46,45.969"
         style="fill:#100f0d;fill-opacity:1;fill-rule:nonzero;stroke:none"
         id="path40" /><path
         d="M 6655.14,11.1016 H 6500.87 V 146.34 h 154.27 V 11.1016"
         style="fill:#100f0d;fill-opacity:1;fill-rule:nonzero;stroke:none"
         id="path42" /><path
         d="m 6993.99,582.73 6.87,-81.89 c 19.01,29.23 42.44,51.949 70.26,68.16 27.83,16.191 58.99,24.289 93.52,24.289 57.75,0 102.83,-18.141 135.24,-54.41 32.41,-36.277 48.61,-93.16 48.61,-170.649 V 11.1016 h -154.8 V 368.531 c 0,38.457 -7.75,65.727 -23.24,81.789 -15.51,16.071 -38.93,24.11 -70.27,24.11 -20.43,0 -38.74,-4.149 -54.95,-12.45 -16.2,-8.3 -29.76,-20.031 -40.67,-35.21 V 11.1016 H 6850.29 V 582.73 h 143.7"
         style="fill:#100f0d;fill-opacity:1;fill-rule:nonzero;stroke:none"
         id="path44" /><path
         d="m 7647.72,291.371 c 0,-52.051 9.16,-93.812 27.49,-125.293 18.3,-31.476 47.89,-47.207 88.75,-47.207 39.79,0 68.94,15.828 87.44,47.481 18.48,31.636 27.73,73.316 27.73,125.019 v 11.078 c 0,50.641 -9.34,91.961 -28,123.969 -18.67,32 -48.07,48.012 -88.23,48.012 -39.8,0 -68.94,-16.098 -87.43,-48.282 -18.5,-32.168 -27.75,-73.41 -27.75,-123.699 z m -153.73,10.828 c 0,85.223 23.77,155.063 71.32,209.473 47.55,54.418 113.41,81.617 197.59,81.617 84.53,0 150.74,-27.117 198.64,-81.348 47.9,-54.25 71.86,-124.152 71.86,-209.742 V 291.102 C 8033.4,205.16 8009.53,135.16 7961.81,81.1016 7914.08,27.0195 7848.13,0 7763.96,0 7679.42,0 7613.3,27.0195 7565.58,81.1016 7517.85,135.16 7493.99,205.16 7493.99,291.102 v 11.097"
         style="fill:#100f0d;fill-opacity:1;fill-rule:nonzero;stroke:none"
         id="path46" /></g></g></svg>
