<?xml version="1.0" encoding="UTF-8"?>
<svg version="1.1" viewBox="0 0 521.41 526.83" xmlSpace="preserve" xmlns="http://www.w3.org/2000/svg" xmlnsCc="http://creativecommons.org/ns#" xmlnsDc="http://purl.org/dc/elements/1.1/" xmlnsRdf="http://www.w3.org/1999/02/22-rdf-syntax-ns#">
  <metadata>
    <rdfRDF>
      <ccWork rdfAbout="">
        <dcFormat>image/svg+xml</dcFormat>
        <dctype rdfResource="http://purl.org/dc/dcmitype/StillImage"/>
      </ccWork>
    </rdfRDF>
  </metadata>
  
  
  <g transform="matrix(1.3333 0 0 -1.3333 0 526.83)">
    <g transform="scale(.1)">
      <path d="m3214.6 2159.4s-10.21-285.12-242.79-389.31h402.96s101.39 16.28 112.92-118.33c12.05-140.52 6.39-942.89 6.39-942.89s32.84-344.85-421.48-295.58h-2348.3s-279.16-19.16-309.27 273.69l-2.738 385.9s14.043 96.27-65.117 99.98c-79.156 3.71-260.97 2.47-260.97 2.47s-81.629 11.13-84.105-82.87c-2.4727-94 1.2383-484.84 1.2383-484.84s14.035-542.85 576.98-603.78l2675.7-3.5664s564.92-29.473 648.42 574.74l4.92 1115.1s-16.42 424.61-406.27 468.62l-288.47 0.66" fill="#040606"/>
      <path d="m3829.6 2766.8c-98.23-1.89-248.53-3.77-258.89-3.9-0.44-0.01-0.76 0.02-1.2 0.11-7.37 1.42-77.16 17.52-78.13 119.08-1.17 129.14-0.03 378.42 0 384.15 0 0.14 0 0.05-0.01 0.19-0.35 5.73-18.32 272.72-293.9 268.98-276.89-3.87-2466.2-14.8-2494.5-14.94-0.222-0.01-0.343 0-0.566 0.02-10.367 1.03-293.79 25.88-289.84-335 4.086-361.5 4.16-663.71 4.16-673.86 0-0.22-4e-3 -0.29-0.023-0.5-1.043-10.11-31.293-330.71 310.43-330.71 32.164 0 58.235-26.07 58.235-58.23v-293.91c0-32.16-26.071-58.23-58.235-58.23h-85.793s-588.1 1.82-641.33 577.46c-0.023438 0.22-0.03125 0.44-0.03125 0.66v1061.4c0 0.37 0.027344 0.69 0.085938 1.05 2.9922 17.41 84.449 463.91 578.18 529.37 0.289 0.04 0.586 0.07 0.879 0.07l2700.1 10.52c0.14 0 0.19 0 0.35 0.01 7.09 0.55 316.81 22.62 524.06-288.17 0.12-0.19 0.21-0.3 0.34-0.47 3.81-4.47 74.3-89.43 100.52-277.93 0.04-0.29 0.07-0.59 0.07-0.89l3.76-496.73c0-0.34 0.03-0.67 0.09-1 1.43-7.92 19.34-116.73-78.86-118.61" fill="#040606"/>
      <path d="m1123.6 1633.2s83.4 6.19 83.4-78.32v-809.88s15.44-95.211-102.62-87.59l-239.64-0.282s-78.226-13.906-78.226 77.532v801.14s-17.274 96.76 70.273 99.4c99.434 3.01 266.81-2 266.81-2" fill="#d41f2b"/>
      <path d="m3117.2 2164.1s-32.63-350.83-359.42-393.99h-1842.4c-28.715 0-51.996 23.27-51.996 51.99v306.67c0 28.65 23.148 51.89 51.797 51.99 485.24 1.68 1756.7 11.94 1756.7 11.94s28.6-4.16 28.6 53.16c0 57.2-4.04 424.8-4.04 424.8s28.61 73.58-110.35 65.38c-138.83-8.18-1385-8.18-1385-8.18l4.16-375.79s3.38-69.16-65.39-69.55c-89.95-0.39-285.97 4.16-285.97 4.16s-57.2-4.16-61.36 65.39c-4.027 69.4-4.027 706.74-4.027 706.74s0 85.79 81.637 89.95c81.757 4.03 1801.8 8.19 1801.8 8.19s339.13 24.44 437.28-335.11l8.06-657.74" fill="#d41f2b"/>
    </g>
  </g>
</svg>
