<?xml version="1.0" encoding="UTF-8" standalone="no"?>
<svg xmlnSdc="http://purl.org/dc/elements/1.1/" xmlnScc="http://creativecommons.org/ns#" xmlnsRdf="http://www.w3.org/1999/02/22-rdf-syntax-ns#" xmlnssvg="http://www.w3.org/2000/svg" xmlns="http://www.w3.org/2000/svg" xmlnsSodipodi="http://sodipodi.sourceforge.net/DTD/sodipodi-0.dtd" xmlnsInkscape="http://www.inkscape.org/namespaces/inkscape" version="1.1" id="svg2" xmlSpace="preserve" width="917.81335" height="130.24001" viewBox="0 0 917.81335 130.24001" sodipodiDocname="PS-Logo-med-tekst.eps">
  <metadata id="metadata8">
    <rdfRDF>
      <ccWork rdfAbout="">
        <dcformat>image/svg+xml</dcformat>
        <dctype rdfResource="http://purl.org/dc/dcmitype/StillImage" />
      </ccWork>
    </rdfRDF>
  </metadata>
  <defs id="defs6" />
  <sodipodiNamedview pagecolor="#ffffff" bordercolor="#666666" borderopacity="1" objecttolerance="10" gridtolerance="10" guidetolerance="10" inkscapePageopacity="0" inkscapePageshadow="2" inkscapeWindow-width="640" inkscapeWindow-height="480" id="namedview4" />
  <g id="g10" inkscapeGroupmode="layer" inkscapeLabel="ink_ext_XXXXXX" transform="matrix(1.3333333,0,0,-1.3333333,0,130.24)">
    <g id="g12" transform="scale(0.1)">
      <path d="m 794.668,533.813 c 0,0 -2.52,-70.481 -60.02,-96.243 h 99.614 c 0,0 25.07,4.024 27.914,-29.246 2.98,-34.746 1.582,-233.097 1.582,-233.097 0,0 8.121,-85.2426 -104.192,-73.067 H 179.051 c 0,0 -69.012,-4.7342 -76.453,67.656 l -0.68,95.403 c 0,0 3.473,23.797 -16.0938,24.715 -19.5703,0.918 -64.5156,0.605 -64.5156,0.605 0,0 -20.17969,2.754 -20.792975,-20.476 C -0.09375,246.82 0.824219,150.199 0.824219,150.199 0.824219,150.199 4.29297,16 143.457,0.941406 L 804.902,0.0625 c 0,0 139.653,-7.28516 160.297,142.0785 l 1.215,275.664 c 0,0 -4.062,104.961 -100.434,115.843 l -71.312,0.165" style="fill:#040606;fill-opacity:1;fill-rule:nonzero;stroke:none" id="path14" />
      <path d="m 946.699,683.988 c -24.281,-0.468 -61.437,-0.933 -64,-0.965 -0.105,-0.003 -0.183,0.008 -0.293,0.028 -1.824,0.351 -19.078,4.332 -19.316,29.437 -0.289,31.922 -0.008,93.551 0,94.965 0,0.035 0,0.012 -0.004,0.043 -0.09,1.418 -4.527,67.418 -72.652,66.496 -68.454,-0.957 -609.672,-3.656 -616.649,-3.691 -0.055,0 -0.086,0 -0.137,0.004 -2.566,0.254 -72.632,6.398 -71.656,-82.817 1.012,-89.367 1.031,-164.07 1.031,-166.582 0,-0.054 0,-0.074 -0.007,-0.121 -0.258,-2.5 -7.7387,-81.754 76.746,-81.754 v 0 c 7.949,0 14.394,-6.445 14.394,-14.398 v -72.656 c 0,-7.95 -6.445,-14.395 -14.394,-14.395 h -21.211 c 0,0 -145.383,0.449 -158.5431875,142.754 C 0.00390625,580.387 0,580.445 0,580.5 v 262.387 c 0,0.09 0.00390625,0.172 0.0234375,0.261 C 0.761719,847.453 20.8984,957.828 142.953,974.012 c 0.07,0.008 0.141,0.015 0.215,0.015 l 667.484,2.602 c 0.039,0 0.051,0 0.09,0.004 1.754,0.137 78.317,5.59 129.551,-71.238 0.027,-0.047 0.055,-0.075 0.086,-0.118 0.937,-1.105 18.367,-22.105 24.851,-68.707 0.008,-0.066 0.012,-0.144 0.012,-0.218 l 0.93,-122.793 c 0.004,-0.086 0.008,-0.168 0.023,-0.25 0.352,-1.957 4.782,-28.86 -19.496,-29.321" style="fill:#040606;fill-opacity:1;fill-rule:nonzero;stroke:none" id="path16" />
      <path d="m 277.758,403.742 c 0,0 20.621,1.535 20.621,-19.355 0,-20.899 0,-200.215 0,-200.215 0,0 3.812,-23.535 -25.371,-21.649 l -59.238,-0.07 c 0,0 -19.34,-3.437 -19.34,19.16 0,22.61 0,198.059 0,198.059 0,0 -4.27,23.914 17.371,24.57 24.582,0.742 65.957,-0.5 65.957,-0.5" style="fill:#d41f2b;fill-opacity:1;fill-rule:nonzero;stroke:none" id="path18" />
      <path d="m 770.605,534.977 c 0,0 -8.066,-86.723 -88.847,-97.395 H 226.289 c -7.101,0 -12.855,5.75 -12.855,12.852 v 75.816 c 0,7.078 5.722,12.824 12.804,12.848 119.957,0.418 434.278,2.953 434.278,2.953 0,0 7.066,-1.028 7.066,13.14 0,14.137 -0.996,105.016 -0.996,105.016 0,0 7.07,18.188 -27.281,16.164 -34.317,-2.027 -342.387,-2.027 -342.387,-2.027 l 1.031,-92.895 c 0,0 0.836,-17.101 -16.168,-17.191 -22.234,-0.102 -70.691,1.023 -70.691,1.023 0,0 -14.141,-1.023 -15.168,16.168 -0.996,17.156 -0.996,174.711 -0.996,174.711 0,0 0,21.207 20.179,22.235 20.211,0.996 445.411,2.023 445.411,2.023 0,0 83.839,6.047 108.097,-82.844 l 1.992,-162.597" style="fill:#d41f2b;fill-opacity:1;fill-rule:nonzero;stroke:none" id="path20" />
      <path d="m 1395.38,449.934 h 81.86 c 23.12,0 40.65,6.3 52.58,18.906 11.94,12.598 17.91,28.664 17.91,48.183 0,19.895 -5.92,36.329 -17.76,49.317 -11.85,12.973 -29.42,19.469 -52.73,19.469 h -81.86 z m 0,-63.954 V 235.902 h -83.01 v 413.86 h 164.87 c 47.56,0 84.99,-12.125 112.28,-36.379 27.28,-24.258 40.92,-56.192 40.92,-95.793 0,-39.61 -13.64,-71.445 -40.92,-95.508 -27.29,-24.07 -64.72,-36.102 -112.28,-36.102 h -81.86" style="fill:#040606;fill-opacity:1;fill-rule:nonzero;stroke:none" id="path22" />
      <path d="m 1807.47,291.332 c 14.59,0 27.57,3.594 38.94,10.801 11.37,7.195 19.04,15.535 23.02,25.008 v 43.496 h -46.33 c -17.62,0 -30.98,-4.403 -40.08,-13.223 -9.09,-8.809 -13.64,-19.473 -13.64,-31.973 0,-10.234 3.41,-18.476 10.23,-24.734 6.82,-6.25 16.11,-9.375 27.86,-9.375 z m 75.89,-55.43 c -3.03,7.012 -5.64,14.395 -7.81,22.168 -2.19,7.774 -3.75,15.731 -4.7,23.875 -8.52,-14.968 -19.75,-27.382 -33.68,-37.234 -13.93,-9.844 -30.55,-14.777 -49.89,-14.777 -32.21,0 -57.03,8.281 -74.47,24.875 -17.43,16.57 -26.15,39.168 -26.15,67.793 0,30.125 11.61,53.476 34.82,70.058 23.21,16.582 57.09,24.871 101.62,24.871 h 46.33 v 24.453 c 0,14.778 -3.88,26.243 -11.65,34.387 -7.77,8.152 -19.24,12.227 -34.39,12.227 -13.46,0 -23.83,-3.274 -31.13,-9.805 -7.29,-6.543 -10.94,-15.586 -10.94,-27.148 l -80.16,0.281 -0.29,1.711 c -1.32,25.957 9.95,48.367 33.83,67.226 23.88,18.848 55.24,28.282 94.09,28.282 36.76,0 66.6,-9.336 89.53,-28 22.93,-18.672 34.4,-45.243 34.4,-79.735 V 314.359 c 0,-14.406 1.09,-27.961 3.27,-40.656 2.17,-12.695 5.64,-25.293 10.37,-37.801 h -83" style="fill:#040606;fill-opacity:1;fill-rule:nonzero;stroke:none" id="path24" />
      <path d="m 2198.81,472.113 -30.41,0.848 c -12.32,0 -22.46,-2.559 -30.42,-7.676 -7.96,-5.117 -14.03,-12.312 -18.19,-21.601 V 235.902 h -82.72 v 307.559 h 77.04 l 3.69,-45.481 c 7.2,16.106 16.53,28.653 28,37.657 11.46,9.004 24.68,13.508 39.65,13.508 4.17,0 8.01,-0.332 11.51,-0.997 3.51,-0.664 7.06,-1.476 10.66,-2.414 l -8.81,-73.621" style="fill:#040606;fill-opacity:1;fill-rule:nonzero;stroke:none" id="path26" />
      <path d="m 2368.16,364.66 h -22.74 V 235.902 h -83 v 443.426 h 83 V 427.766 h 20.47 l 71.34,115.695 h 96.08 l -98.35,-139.289 113.41,-168.27 h -95.22 l -84.99,128.758" style="fill:#040606;fill-opacity:1;fill-rule:nonzero;stroke:none" id="path28" />
      <path d="m 2683.04,235.902 h -83 v 307.559 h 83 z m 0,381.176 h -83 v 62.25 h 83 v -62.25" style="fill:#040606;fill-opacity:1;fill-rule:nonzero;stroke:none" id="path30" />
      <path d="m 2848.7,543.461 3.69,-44.063 c 10.24,15.731 22.83,27.95 37.8,36.668 14.98,8.711 31.74,13.079 50.32,13.079 31.07,0 55.33,-9.766 72.77,-29.278 17.43,-19.523 26.14,-50.129 26.14,-91.816 V 235.902 h -83.28 v 192.305 c 0,20.703 -4.17,35.371 -12.51,44.012 -8.34,8.644 -20.94,12.969 -37.8,12.969 -10.99,0 -20.85,-2.235 -29.56,-6.7 -8.72,-4.461 -16.02,-10.781 -21.89,-18.945 V 235.902 h -83 v 307.559 h 77.32" style="fill:#040606;fill-opacity:1;fill-rule:nonzero;stroke:none" id="path32" />
      <path d="m 3193.14,381.105 c 0,-27.078 4.54,-48.378 13.64,-63.914 9.1,-15.539 23.88,-23.3 44.34,-23.3 12.7,0 23.45,2.332 32.27,7 8.81,4.668 15.87,11.484 21.17,20.449 v 134.394 c -5.3,9.336 -12.36,16.582 -21.17,21.731 -8.82,5.144 -19.38,7.723 -31.7,7.723 -20.27,0 -35.1,-9.063 -44.48,-27.168 -9.38,-18.114 -14.07,-41.747 -14.07,-70.907 z m -83,6.016 c 0,48.508 10.56,87.637 31.69,117.395 21.13,29.746 50.74,44.629 88.83,44.629 17.24,0 32.4,-3.887 45.48,-11.661 13.07,-7.765 24.25,-18.859 33.54,-33.254 l 6.54,39.231 h 71.63 V 237.328 c 0,-39.992 -13.13,-70.93 -39.37,-92.812 -26.25,-21.887 -62.78,-32.832 -109.58,-32.832 -15.54,0 -32.03,2.136 -49.46,6.394 -17.43,4.27 -33.54,10.09 -48.32,17.481 l 15.35,61.972 c 12.69,-6.062 25.63,-10.664 38.8,-13.789 13.17,-3.125 27.52,-4.687 43.06,-4.687 22.74,0 39.46,4.738 50.17,14.211 10.71,9.472 16.06,24.257 16.06,44.343 v 27.852 c -9.09,-11.563 -19.8,-20.371 -32.12,-26.434 -12.32,-6.066 -26.43,-9.093 -42.35,-9.093 -37.71,0 -67.13,13.879 -88.26,41.64 -21.13,27.754 -31.69,64.289 -31.69,109.582 v 5.965" style="fill:#040606;fill-opacity:1;fill-rule:nonzero;stroke:none" id="path34" />
      <path d="m 3869.81,343.918 c 0,15.918 -5.65,28.703 -16.92,38.371 -11.27,9.668 -31.03,18.758 -59.26,27.285 -49.28,14.219 -86.52,31.082 -111.71,50.594 -25.21,19.523 -37.81,46.242 -37.81,80.156 0,33.926 14.45,61.637 43.36,83.149 28.88,21.504 65.8,32.261 110.71,32.261 45.48,0 82.52,-12.078 111.13,-36.238 28.61,-24.168 42.45,-53.965 41.5,-89.394 l -0.56,-1.711 h -80.44 c 0,19.14 -6.4,34.629 -19.19,46.476 -12.79,11.84 -30.75,17.762 -53.87,17.762 -22.17,0 -39.32,-4.926 -51.44,-14.781 -12.13,-9.856 -18.2,-22.453 -18.2,-37.805 0,-14.023 6.49,-25.539 19.48,-34.531 12.97,-9.004 35.39,-18.528 67.22,-28.567 45.67,-12.703 80.25,-29.472 103.75,-50.312 23.49,-20.848 35.25,-48.231 35.25,-82.149 0,-35.437 -13.98,-63.386 -41.93,-83.855 -27.96,-20.461 -64.86,-30.695 -110.72,-30.695 -45.1,0 -84.41,11.601 -117.96,34.816 -33.54,23.211 -49.83,55.762 -48.89,97.645 l 0.57,1.699 h 80.72 c 0,-24.637 7.54,-42.684 22.6,-54.149 15.07,-11.465 36.06,-17.199 62.96,-17.199 22.55,0 39.8,4.649 51.74,13.938 11.93,9.277 17.91,21.687 17.91,37.234" style="fill:#040606;fill-opacity:1;fill-rule:nonzero;stroke:none" id="path36" />
      <path d="m 4100.26,386.703 c 0,-28.008 4.93,-50.48 14.78,-67.414 9.86,-16.934 25.77,-25.398 47.76,-25.398 21.4,0 37.09,8.515 47.04,25.535 9.95,17.031 14.92,39.453 14.92,67.277 v 5.957 c 0,27.246 -5.02,49.473 -15.07,66.699 -10.04,17.215 -25.86,25.829 -47.46,25.829 -21.42,0 -37.1,-8.661 -47.05,-25.977 -9.94,-17.313 -14.92,-39.492 -14.92,-66.551 z m -82.72,5.82 c 0,45.86 12.8,83.426 38.38,112.704 25.58,29.277 61.02,43.918 106.31,43.918 45.48,0 81.1,-14.602 106.88,-43.782 25.76,-29.179 38.65,-66.797 38.65,-112.84 v -5.968 c 0,-46.239 -12.84,-83.907 -38.52,-112.989 -25.67,-29.089 -61.16,-43.632 -106.44,-43.632 -45.48,0 -81.07,14.543 -106.74,43.632 -25.67,29.082 -38.52,66.75 -38.52,112.989 v 5.968" style="fill:#040606;fill-opacity:1;fill-rule:nonzero;stroke:none" id="path38" />
      <path d="m 4467.73,235.902 h -83 v 443.426 h 83 V 235.902" style="fill:#040606;fill-opacity:1;fill-rule:nonzero;stroke:none" id="path40" />
      <path d="m 4745.39,280.246 c -9.49,-16.113 -21.52,-28.523 -36.11,-37.234 -14.59,-8.723 -31.37,-13.078 -50.31,-13.078 -32.4,0 -57.75,10.371 -76.04,31.125 -18.29,20.75 -27.43,53.007 -27.43,96.785 v 185.617 h 82.72 V 356.848 c 0,-22.41 3.79,-38.516 11.37,-48.289 7.57,-9.778 18.76,-14.668 33.54,-14.668 13.26,0 24.64,2.136 34.11,6.406 9.47,4.277 17.25,10.586 23.31,18.945 v 224.219 h 83 V 235.902 h -70.78 l -7.38,44.344" style="fill:#040606;fill-opacity:1;fill-rule:nonzero;stroke:none" id="path42" />
      <path d="m 5006.25,618.781 v -75.32 h 51.74 v -58.273 h -51.74 V 328.566 c 0,-11.941 2.47,-20.468 7.4,-25.586 4.92,-5.117 11.55,-7.675 19.89,-7.675 4.35,0 8.1,0.234 11.23,0.715 3.12,0.468 6.78,1.277 10.95,2.421 l 7.1,-59.98 c -8.34,-2.844 -16.49,-4.973 -24.45,-6.398 -7.96,-1.415 -16.58,-2.129 -25.87,-2.129 -28.61,0 -50.64,7.863 -66.08,23.593 -15.45,15.723 -23.16,40.645 -23.16,74.758 v 156.903 h -44.92 v 58.273 h 44.92 v 75.32 h 82.99" style="fill:#040606;fill-opacity:1;fill-rule:nonzero;stroke:none" id="path44" />
      <path d="m 5219.66,235.902 h -83 v 307.559 h 83 z m 0,381.176 h -83 v 62.25 h 83 v -62.25" style="fill:#040606;fill-opacity:1;fill-rule:nonzero;stroke:none" id="path46" />
      <path d="m 5379.34,386.703 c 0,-28.008 4.93,-50.48 14.79,-67.414 9.85,-16.934 25.77,-25.398 47.75,-25.398 21.41,0 37.09,8.515 47.04,25.535 9.95,17.031 14.92,39.453 14.92,67.277 v 5.957 c 0,27.246 -5.02,49.473 -15.07,66.699 -10.04,17.215 -25.86,25.829 -47.46,25.829 -21.41,0 -37.1,-8.661 -47.05,-25.977 -9.94,-17.313 -14.92,-39.492 -14.92,-66.551 z m -82.71,5.82 c 0,45.86 12.79,83.426 38.37,112.704 25.58,29.277 61.02,43.918 106.31,43.918 45.48,0 81.11,-14.602 106.88,-43.782 25.76,-29.179 38.65,-66.797 38.65,-112.84 v -5.968 c 0,-46.239 -12.84,-83.907 -38.52,-112.989 -25.67,-29.089 -61.16,-43.632 -106.44,-43.632 -45.48,0 -81.07,14.543 -106.74,43.632 -25.67,29.082 -38.51,66.75 -38.51,112.989 v 5.968" style="fill:#040606;fill-opacity:1;fill-rule:nonzero;stroke:none" id="path48" />
      <path d="m 5735.44,543.461 3.7,-44.063 c 10.23,15.731 22.83,27.95 37.8,36.668 14.97,8.711 31.74,13.079 50.31,13.079 31.07,0 55.33,-9.766 72.76,-29.278 17.44,-19.523 26.16,-50.129 26.16,-91.816 V 235.902 h -83.28 v 192.305 c 0,20.703 -4.17,35.371 -12.51,44.012 -8.34,8.644 -20.94,12.969 -37.81,12.969 -10.99,0 -20.85,-2.235 -29.56,-6.7 -8.72,-4.461 -16.01,-10.781 -21.88,-18.945 V 235.902 h -83.01 v 307.559 h 77.32" style="fill:#040606;fill-opacity:1;fill-rule:nonzero;stroke:none" id="path50" />
      <path d="m 6280.21,390.246 h 104.32 l -51.17,162.59 h -1.71 z m 124.78,-65.086 h -145.25 l -28.13,-89.258 h -83.86 l 142.41,413.86 h 84.99 l 141.84,-413.86 h -83.85 l -28.15,89.258" style="fill:#040606;fill-opacity:1;fill-rule:nonzero;stroke:none" id="path52" />
      <path d="m 6800.61,343.918 c 0,15.918 -5.64,28.703 -16.91,38.371 -11.28,9.668 -31.04,18.758 -59.27,27.285 -49.28,14.219 -86.52,31.082 -111.71,50.594 -25.21,19.523 -37.8,46.242 -37.8,80.156 0,33.926 14.44,61.637 43.34,83.149 28.89,21.504 65.81,32.261 110.72,32.261 45.48,0 82.52,-12.078 111.13,-36.238 28.61,-24.168 42.45,-53.965 41.51,-89.394 l -0.57,-1.711 h -80.44 c 0,19.14 -6.4,34.629 -19.19,46.476 -12.79,11.84 -30.75,17.762 -53.87,17.762 -22.16,0 -39.32,-4.926 -51.44,-14.781 -12.13,-9.856 -18.2,-22.453 -18.2,-37.805 0,-14.023 6.49,-25.539 19.48,-34.531 12.98,-9.004 35.39,-18.528 67.22,-28.567 45.67,-12.703 80.25,-29.472 103.75,-50.312 23.49,-20.848 35.25,-48.231 35.25,-82.149 0,-35.437 -13.98,-63.386 -41.93,-83.855 -27.96,-20.461 -64.86,-30.695 -110.72,-30.695 -45.1,0 -84.41,11.601 -117.96,34.816 -33.54,23.211 -49.84,55.762 -48.88,97.645 l 0.56,1.699 h 80.72 c 0,-24.637 7.54,-42.684 22.6,-54.149 15.07,-11.465 36.06,-17.199 62.96,-17.199 22.55,0 39.8,4.649 51.74,13.938 11.93,9.277 17.91,21.687 17.91,37.234" style="fill:#040606;fill-opacity:1;fill-rule:nonzero;stroke:none" id="path54" />
    </g>
  </g>
</svg>